<svg width="32" height="32" viewBox="0 0 32 32" fill="none" xmlns="http://www.w3.org/2000/svg">
<path d="M16.2482 8.12701C12.8944 8.12701 10.1587 10.7719 10.1587 14.0144C10.1587 18.0426 15.6072 23.9632 15.8476 24.2067C16.0651 24.4391 16.4428 24.4391 16.6603 24.2067C16.8892 23.9522 22.3492 18.0426 22.3492 14.0144C22.3377 10.7719 19.6135 8.12701 16.2482 8.12701ZM16.2482 16.9802C14.5541 16.9802 13.1806 15.6523 13.1806 14.0144C13.1806 12.3766 14.5541 11.0486 16.2482 11.0486C17.9423 11.0486 19.3159 12.3876 19.3159 14.0144C19.3159 15.6412 17.9423 16.9802 16.2482 16.9802Z" fill="#6EA6E4"/>
</svg>
