<svg width="44" height="44" viewBox="0 0 44 44" fill="none" xmlns="http://www.w3.org/2000/svg">
<path d="M30.7008 27.4932C30.3444 27.4932 30.0645 27.7814 30.0645 28.129V29.5787C30.0645 29.9347 30.3529 30.2145 30.7008 30.2145C31.0572 30.2145 31.3371 29.9262 31.3371 29.5787V28.129C31.3456 27.7729 31.0572 27.4932 30.7008 27.4932Z" fill="#89FBC6"/>
<path d="M30.7008 36.1738C30.3444 36.1738 30.0645 36.4621 30.0645 36.8096V39.7005C30.0645 40.0566 30.3529 40.3363 30.7008 40.3363C31.0571 40.3363 31.3371 40.0481 31.3371 39.7005V36.8096C31.3371 36.6401 31.2693 36.479 31.1505 36.3603C31.0317 36.2416 30.8705 36.1738 30.7008 36.1738Z" fill="#89FBC6"/>
<path d="M33.6012 18.812C33.2448 18.812 32.9648 19.1003 32.9648 19.4478V20.8975C32.9648 21.2536 33.2533 21.5333 33.6012 21.5333C33.949 21.5333 34.2375 21.2451 34.2375 20.8975V19.4478C34.2375 19.0918 33.949 18.812 33.6012 18.812Z" fill="#89FBC6"/>
<path d="M30.7008 23.1523C30.3444 23.1523 30.0645 23.4406 30.0645 23.7882V25.2378C30.0645 25.5939 30.3529 25.8737 30.7008 25.8737C31.0572 25.8737 31.3371 25.5854 31.3371 25.2378V23.7882C31.3456 23.4321 31.0572 23.1523 30.7008 23.1523Z" fill="#89FBC6"/>
<path d="M30.7008 31.8335C30.3444 31.8335 30.0645 32.1217 30.0645 32.4693V33.919C30.0645 34.2751 30.3529 34.5548 30.7008 34.5548C31.0572 34.5548 31.3371 34.2666 31.3371 33.919V32.4693C31.3456 32.1133 31.0572 31.8335 30.7008 31.8335Z" fill="#89FBC6"/>
<path d="M33.6012 23.1523C33.2448 23.1523 32.9648 23.4406 32.9648 23.7882V25.2378C32.9648 25.5939 33.2533 25.8737 33.6012 25.8737C33.949 25.8737 34.2375 25.5854 34.2375 25.2378V23.7882C34.2375 23.4321 33.949 23.1523 33.6012 23.1523Z" fill="#89FBC6"/>
<path d="M27.8082 18.812C27.4519 18.812 27.1719 19.1003 27.1719 19.4478V20.8975C27.1719 21.2536 27.4604 21.5333 27.8082 21.5333C28.1646 21.5333 28.4446 21.2451 28.4446 20.8975V19.4478C28.4446 19.0918 28.1646 18.812 27.8082 18.812Z" fill="#89FBC6"/>
<path d="M30.7008 18.812C30.3444 18.812 30.0645 19.1003 30.0645 19.4478V20.8975C30.0645 21.2536 30.3529 21.5333 30.7008 21.5333C31.0572 21.5333 31.3371 21.2451 31.3371 20.8975V19.4478C31.3456 19.0918 31.0572 18.812 30.7008 18.812Z" fill="#89FBC6"/>
<path d="M27.8082 23.1523C27.4519 23.1523 27.1719 23.4406 27.1719 23.7882V25.2378C27.1719 25.5939 27.4604 25.8737 27.8082 25.8737C28.1646 25.8737 28.4446 25.5854 28.4446 25.2378V23.7882C28.4446 23.4321 28.1646 23.1523 27.8082 23.1523Z" fill="#89FBC6"/>
<path d="M27.8082 27.4932C27.4519 27.4932 27.1719 27.7814 27.1719 28.129V29.5787C27.1719 29.9347 27.4604 30.2145 27.8082 30.2145C28.1646 30.2145 28.4446 29.9262 28.4446 29.5787V28.129C28.4446 27.7729 28.1646 27.4932 27.8082 27.4932Z" fill="#89FBC6"/>
<path d="M33.6012 31.8335C33.2448 31.8335 32.9648 32.1217 32.9648 32.4693V33.919C32.9648 34.2751 33.2533 34.5548 33.6012 34.5548C33.949 34.5548 34.2375 34.2666 34.2375 33.919V32.4693C34.2375 32.1133 33.949 31.8335 33.6012 31.8335Z" fill="#89FBC6"/>
<path d="M33.6012 36.1738C33.2448 36.1738 32.9648 36.4621 32.9648 36.8096V39.7005C32.9648 40.0566 33.2533 40.3363 33.6012 40.3363C33.949 40.3363 34.2375 40.0481 34.2375 39.7005V36.8096C34.2375 36.4536 33.949 36.1738 33.6012 36.1738Z" fill="#89FBC6"/>
<path d="M33.6012 27.4932C33.2448 27.4932 32.9648 27.7814 32.9648 28.129V29.5787C32.9648 29.9347 33.2533 30.2145 33.6012 30.2145C33.949 30.2145 34.2375 29.9262 34.2375 29.5787V28.129C34.2375 27.7729 33.949 27.4932 33.6012 27.4932Z" fill="#89FBC6"/>
<path d="M37.1321 16.5567C37.1321 16.26 36.937 16.0057 36.6485 15.9379L25.0671 13.047C24.8804 12.9961 24.6768 13.047 24.5156 13.1657C24.3629 13.2844 24.2695 13.4709 24.2695 13.6659V29.5783C24.2695 29.9344 24.558 30.2142 24.9059 30.2142C25.2622 30.2142 25.5422 29.9259 25.5422 29.5783V14.4797L35.851 17.0569V39.7091C35.851 40.0651 36.1394 40.3449 36.4873 40.3449C36.8437 40.3449 37.1237 40.0567 37.1237 39.7091V16.5567H37.1321Z" fill="#89FBC6"/>
<path d="M19.1207 14.4712C18.7644 14.4712 18.4844 14.7594 18.4844 15.107V16.5567C18.4844 16.9127 18.7729 17.1925 19.1207 17.1925C19.4771 17.1925 19.7571 16.9043 19.7571 16.5567V15.107C19.7571 14.751 19.4771 14.4712 19.1207 14.4712Z" fill="#89FBC6"/>
<path d="M19.1207 10.1309C18.7644 10.1309 18.4844 10.4191 18.4844 10.7667V12.2164C18.4844 12.5724 18.7729 12.8522 19.1207 12.8522C19.4771 12.8522 19.7571 12.5639 19.7571 12.2164V10.7667C19.7571 10.4106 19.4771 10.1309 19.1207 10.1309Z" fill="#89FBC6"/>
<path d="M13.3238 31.8335C12.9675 31.8335 12.6875 32.1217 12.6875 32.4693V33.919C12.6875 34.2751 12.976 34.5548 13.3238 34.5548C13.6802 34.5548 13.9602 34.2666 13.9602 33.919V32.4693C13.9687 32.1133 13.6802 31.8335 13.3238 31.8335Z" fill="#89FBC6"/>
<path d="M16.2269 40.3452C16.5832 40.3452 16.8632 40.0569 16.8632 39.7094V20.8975C16.8632 20.5415 16.5747 20.2617 16.2269 20.2617H7.53869C7.18233 20.2617 6.90234 20.55 6.90234 20.8975V25.2381C6.90234 25.5941 7.19082 25.8739 7.53869 25.8739C7.89504 25.8739 8.17503 25.5857 8.17503 25.2381V21.5334H15.5821V39.7009C15.5821 40.0569 15.8705 40.3452 16.2269 40.3452Z" fill="#89FBC6"/>
<path d="M16.2262 14.4712C15.8698 14.4712 15.5898 14.7594 15.5898 15.107V16.5567C15.5898 16.9127 15.8783 17.1925 16.2262 17.1925C16.5825 17.1925 16.8625 16.9043 16.8625 16.5567V15.107C16.8625 14.751 16.5741 14.4712 16.2262 14.4712Z" fill="#89FBC6"/>
<path d="M19.1207 5.79053C18.7644 5.79053 18.4844 6.07877 18.4844 6.42635V7.87602C18.4844 8.23208 18.7729 8.51184 19.1207 8.51184C19.4771 8.51184 19.7571 8.2236 19.7571 7.87602V6.42635C19.7571 6.07029 19.4771 5.79053 19.1207 5.79053Z" fill="#89FBC6"/>
<path d="M13.3238 36.1738C12.9675 36.1738 12.6875 36.4621 12.6875 36.8096V39.7005C12.6875 40.0566 12.976 40.3363 13.3238 40.3363C13.6802 40.3363 13.9602 40.0481 13.9602 39.7005V36.8096C13.9602 36.6401 13.8923 36.479 13.7735 36.3603C13.6547 36.2416 13.4935 36.1738 13.3238 36.1738Z" fill="#89FBC6"/>
<path d="M4.63634 43.2361H39.3552C39.7115 43.2361 39.9915 42.9479 39.9915 42.6003C39.9915 42.2527 39.703 41.9645 39.3552 41.9645H25.5508V38.8447L25.6187 38.8277C27.2562 38.4971 28.444 37.039 28.444 35.3689C28.444 33.419 26.8574 31.8337 24.906 31.8337C22.9545 31.8337 21.3679 33.419 21.3679 35.3689C21.3679 37.039 22.5557 38.4971 24.1933 38.8277L24.2611 38.8447V41.9645H8.1744V34.5042L8.24228 34.4872C9.8798 34.1566 11.0676 32.6984 11.0676 31.0283C11.0676 29.0785 9.48103 27.4932 7.52958 27.4932C5.58661 27.4932 4 29.0785 4 31.0199C4 32.6899 5.18784 34.1481 6.82536 34.4787L6.89324 34.4957V41.956H4.63634C4.27999 41.956 4 42.2442 4 42.5918C4 42.9394 4.28848 43.2361 4.63634 43.2361ZM22.6576 35.3604C22.6576 34.1142 23.6672 33.1053 24.9144 33.1053C26.1617 33.1053 27.1713 34.1142 27.1713 35.3604C27.1713 36.6066 26.1617 37.6154 24.9144 37.6154C23.6672 37.6154 22.6576 36.6066 22.6576 35.3604ZM5.28117 31.0199C5.28117 29.7736 6.29083 28.7648 7.53806 28.7648C8.78529 28.7648 9.79496 29.7736 9.79496 31.0199C9.79496 32.2661 8.78529 33.2749 7.53806 33.2749C6.29083 33.2749 5.28117 32.2661 5.28117 31.0199Z" fill="#89FBC6"/>
<path d="M10.4313 36.1738C10.0749 36.1738 9.79492 36.4621 9.79492 36.8096V39.7005C9.79492 40.0566 10.0834 40.3363 10.4313 40.3363C10.7876 40.3363 11.0676 40.0481 11.0676 39.7005V36.8096C11.0676 36.4536 10.7876 36.1738 10.4313 36.1738Z" fill="#89FBC6"/>
<path d="M13.3238 23.1523C12.9675 23.1523 12.6875 23.4406 12.6875 23.7882V25.2378C12.6875 25.5939 12.976 25.8737 13.3238 25.8737C13.6802 25.8737 13.9602 25.5854 13.9602 25.2378V23.7882C13.9687 23.4321 13.6802 23.1523 13.3238 23.1523Z" fill="#89FBC6"/>
<path d="M13.3238 27.4932C12.9675 27.4932 12.6875 27.7814 12.6875 28.129V29.5787C12.6875 29.9347 12.976 30.2145 13.3238 30.2145C13.6802 30.2145 13.9602 29.9262 13.9602 29.5787V28.129C13.9687 27.7729 13.6802 27.4932 13.3238 27.4932Z" fill="#89FBC6"/>
<path d="M10.4313 23.1523C10.0749 23.1523 9.79492 23.4406 9.79492 23.7882V25.2378C9.79492 25.5939 10.0834 25.8737 10.4313 25.8737C10.7876 25.8737 11.0676 25.5854 11.0676 25.2378V23.7882C11.0676 23.4321 10.7876 23.1523 10.4313 23.1523Z" fill="#89FBC6"/>
<path d="M19.1207 27.4932C18.7644 27.4932 18.4844 27.7814 18.4844 28.129V29.5787C18.4844 29.9347 18.7729 30.2145 19.1207 30.2145C19.4771 30.2145 19.7571 29.9262 19.7571 29.5787V28.129C19.7571 27.7729 19.4771 27.4932 19.1207 27.4932Z" fill="#89FBC6"/>
<path d="M22.6574 19.4478C22.6574 19.0918 22.369 18.812 22.0211 18.812C21.6732 18.812 21.3848 19.1003 21.3848 19.4478V20.8975C21.3848 21.2536 21.6732 21.5333 22.0211 21.5333C22.369 21.5333 22.6574 21.2451 22.6574 20.8975V19.4478Z" fill="#89FBC6"/>
<path d="M22.6574 15.107C22.6574 14.751 22.369 14.4712 22.0211 14.4712C21.6732 14.4712 21.3848 14.7594 21.3848 15.107V16.5567C21.3848 16.9127 21.6732 17.1925 22.0211 17.1925C22.369 17.1925 22.6574 16.9043 22.6574 16.5567V15.107Z" fill="#89FBC6"/>
<path d="M22.6574 23.7882C22.6574 23.4321 22.369 23.1523 22.0211 23.1523C21.6732 23.1523 21.3848 23.4406 21.3848 23.7882V25.2378C21.3848 25.5939 21.6732 25.8737 22.0211 25.8737C22.369 25.8737 22.6574 25.5854 22.6574 25.2378V23.7882Z" fill="#89FBC6"/>
<path d="M22.6574 28.129C22.6574 27.9594 22.5896 27.7984 22.4708 27.6797C22.352 27.561 22.1908 27.4932 22.0211 27.4932C21.6648 27.4932 21.3848 27.7814 21.3848 28.129V29.5787C21.3848 29.9347 21.6732 30.2145 22.0211 30.2145C22.369 30.2145 22.6574 29.9262 22.6574 29.5787V28.129Z" fill="#89FBC6"/>
<path d="M22.6574 10.7667C22.6574 10.4106 22.369 10.1309 22.0211 10.1309C21.6732 10.1309 21.3848 10.4191 21.3848 10.7667V12.2164C21.3848 12.5724 21.6732 12.8522 22.0211 12.8522C22.369 12.8522 22.6574 12.5639 22.6574 12.2164V10.7667Z" fill="#89FBC6"/>
<path d="M19.1207 31.8335C18.7644 31.8335 18.4844 32.1217 18.4844 32.4693V33.919C18.4844 34.2751 18.7729 34.5548 19.1207 34.5548C19.4771 34.5548 19.7571 34.2666 19.7571 33.919V32.4693C19.7571 32.1133 19.4771 31.8335 19.1207 31.8335Z" fill="#89FBC6"/>
<path d="M24.9138 11.4024C25.2701 11.4024 25.5501 11.1142 25.5501 10.7666V4.25576C25.5501 4.00991 25.4143 3.78949 25.1937 3.68776L21.206 1.69552V0.635821C21.206 0.279761 20.9175 0 20.5697 0C20.2133 0 19.9333 0.288239 19.9333 0.635821V1.68705L15.9456 3.67929C15.725 3.78949 15.5892 4.00991 15.5892 4.24729V10.3596L13.0439 11.6313C12.8233 11.7415 12.6875 11.9619 12.6875 12.1993V17.9895C12.6875 18.1591 12.7554 18.3201 12.8742 18.4388C12.9929 18.5575 13.1542 18.6253 13.3238 18.6253C13.6802 18.6253 13.9602 18.3371 13.9602 17.9895V12.5977L16.5056 11.3261C16.7262 11.2159 16.8619 10.9955 16.8619 10.7581V4.65421L20.5697 2.79761L24.2774 4.64573V10.7666C24.2689 11.1226 24.5574 11.4024 24.9138 11.4024Z" fill="#89FBC6"/>
<path d="M19.1207 23.1523C18.7644 23.1523 18.4844 23.4406 18.4844 23.7882V25.2378C18.4844 25.5939 18.7729 25.8737 19.1207 25.8737C19.4771 25.8737 19.7571 25.5854 19.7571 25.2378V23.7882C19.7571 23.4321 19.4771 23.1523 19.1207 23.1523Z" fill="#89FBC6"/>
<path d="M19.1207 36.1738C18.7644 36.1738 18.4844 36.4621 18.4844 36.8096V39.7005C18.4844 40.0566 18.7729 40.3363 19.1207 40.3363C19.4771 40.3363 19.7571 40.0481 19.7571 39.7005V36.8096C19.7571 36.4536 19.4771 36.1738 19.1207 36.1738Z" fill="#89FBC6"/>
<path d="M22.6574 6.42635C22.6574 6.07029 22.369 5.79053 22.0211 5.79053C21.6732 5.79053 21.3848 6.07877 21.3848 6.42635V7.87602C21.3848 8.23208 21.6732 8.51184 22.0211 8.51184C22.369 8.51184 22.6574 8.2236 22.6574 7.87602V6.42635Z" fill="#89FBC6"/>
<path d="M19.1207 18.812C18.7644 18.812 18.4844 19.1003 18.4844 19.4478V20.8975C18.4844 21.2536 18.7729 21.5333 19.1207 21.5333C19.4771 21.5333 19.7571 21.2451 19.7571 20.8975V19.4478C19.7571 19.0918 19.4771 18.812 19.1207 18.812Z" fill="#89FBC6"/>
</svg>
