<svg width="32" height="32" viewBox="0 0 32 32" fill="none" xmlns="http://www.w3.org/2000/svg">
<path d="M23.0533 20.4081L20.8765 18.2296C20.4323 17.785 19.7215 17.785 19.2773 18.274L18.1667 19.3855C18.0779 19.3411 16.6119 18.6742 15.2792 17.3404C13.7244 15.7843 13.2802 14.5394 13.2358 14.4505L14.3463 13.339C14.7906 12.8944 14.7906 12.1386 14.3908 11.7384L12.1252 9.47097C11.681 9.02637 10.9702 9.02637 10.526 9.51543L9.94846 10.1379C9.72635 10.4046 9.54866 10.7159 9.45981 11.0271C9.28212 11.3827 9.2377 11.6495 9.19327 11.9607C8.88231 14.3616 9.99289 16.5846 12.9692 19.5634C17.1006 23.6981 20.4323 23.3869 20.5656 23.3425C20.8765 23.298 21.1875 23.2091 21.4984 23.1202C21.8094 22.9868 22.1204 22.8089 22.3869 22.6311L23.0088 22.0087C23.4531 21.5641 23.4975 20.8082 23.0533 20.4081Z" fill="#6EA6E4"/>
</svg>
