            <svg width="670" height="670"
              viewBox="0 0 670 670" fill="none" xmlns="http://www.w3.org/2000/svg">
              <g opacity="0.6">
                <path vector-effect="non-scaling-stroke"
                  d="M1.05716 10.519C0.83731 10.5149 0.65139 10.5114 0.499997 10.5087V0.611804C2.63207 0.67889 6.38646 0.777245 11.4579 0.910102C44.9726 1.78809 136.006 4.17292 196.46 8.99841C244.078 12.7993 291.803 16.0948 334.855 19.0677C388.299 22.7582 434.544 25.9515 464.449 28.9974C547.587 37.4652 576.285 44.6359 594.167 49.1042C596.947 49.7989 599.466 50.4284 601.888 50.9872C610.613 53.0008 616.82 61.5135 621.157 74.8373C625.484 88.1313 627.89 106.042 629.14 126.53C630.387 146.993 628.848 190.707 625.264 235.201C621.68 279.702 616.058 324.903 609.159 348.359C602.9 369.641 599.701 380.367 596.19 386.705C594.448 389.848 592.638 391.892 590.343 393.602C588.03 395.325 585.214 396.718 581.421 398.549C577.842 400.277 572.343 402.684 565.487 405.686C544.673 414.797 511.351 429.383 481.247 447.069C461.335 458.767 419.432 471.296 367.924 476.938C316.432 482.578 255.407 481.327 197.27 465.517C102.19 439.661 62.489 346.077 50.6602 318.195C49.2551 314.882 48.2432 312.497 47.5786 311.263C44.0762 304.759 38.2767 294.23 30.3427 283.76C22.4678 273.369 12.4659 263.002 0.48574 256.69C0.485078 256.655 0.484444 256.617 0.483842 256.576C0.480052 256.317 0.477648 255.947 0.476335 255.502C0.473711 254.611 0.475459 253.426 0.478964 252.241C0.482468 251.055 0.487724 249.871 0.492104 248.983C0.493937 248.611 0.495617 248.291 0.49695 248.045C1.04013 248.134 1.74216 248.357 2.59414 248.725C3.72082 249.212 5.06115 249.931 6.56255 250.853C9.56434 252.696 13.1775 255.33 16.9612 258.481C24.5323 264.786 32.7429 273.125 38.0818 281.274C47.5687 295.754 69.0379 333.693 79.5488 355.715C84.8087 366.736 90.8627 377.023 97.0552 384.689C100.151 388.522 103.292 391.712 106.397 394.011C109.499 396.308 112.595 397.737 115.595 397.998C117.214 398.139 118.609 397.967 119.768 397.458C120.935 396.946 121.83 396.106 122.463 394.969C123.712 392.724 123.926 389.343 123.324 385.01C122.115 376.315 117.555 363.363 110.46 346.803C102.636 328.543 91.7544 305.154 80.4045 284.323C74.7296 273.909 68.9342 264.127 63.3423 255.945C57.7556 247.769 52.3523 241.16 47.4569 237.115C40.0704 231.011 31.4437 225.115 23.058 220.743C14.9007 216.49 6.91444 213.648 0.499997 213.506V202.465C3.12885 202.319 6.72719 202.866 10.8859 203.983C15.2781 205.162 20.2534 206.965 25.2969 209.207C35.3937 213.694 45.7071 219.914 52.1464 226.354C65.1004 239.308 77.5656 256.749 90.0546 281.227C95.7946 292.478 104.001 312.936 112.222 333.432C112.933 335.206 113.645 336.98 114.355 338.749C118.81 349.842 123.204 360.707 127.142 369.861C131.075 379.007 134.566 386.477 137.213 390.762C137.566 391.333 137.953 391.972 138.378 392.673C143.758 401.545 155.173 420.368 178.582 437.504C203.845 455.996 243.041 472.5 303.638 472.5C410.724 472.5 458.319 448.48 477.413 435.917C496.937 423.073 518.795 403.051 524.992 396.853C528.821 393.025 535.851 381.941 543.171 361.984C550.498 342.007 558.131 313.094 563.135 273.562C568.356 232.319 566.789 191.53 563.057 158.99C559.328 126.466 553.43 102.131 549.962 93.8077C548.975 91.4403 548.18 89.3083 547.453 87.3582C547.262 86.8457 547.075 86.3459 546.891 85.8576C546.009 83.5178 545.182 81.4401 544.172 79.5624C542.134 75.7752 539.368 72.8324 533.971 70.0616C528.602 67.3052 520.615 64.7113 508.128 61.6002C495.633 58.4872 478.595 54.8477 455.101 50.0103C425.929 44.0037 302.04 29.0016 196.54 20.5016C143.782 16.2509 94.6495 13.7506 58.7075 12.3129C40.7363 11.5941 26.0622 11.1409 15.8806 10.8674C10.7898 10.7306 6.82209 10.6388 4.1269 10.5812C2.7793 10.5524 1.74983 10.5321 1.05716 10.519Z"
                  stroke="#6EA6E4" />
                <path vector-effect="non-scaling-stroke"
                  d="M570.138 82.9997C561.638 83.4997 564.138 89.4997 566.138 94.9997C572.638 119.5 584.638 187.5 582.138 231C579.638 274.5 564.138 349 558.138 365.5C552.138 382 552.138 379.5 549.638 385C547.138 390.5 554.138 390 575.138 384C596.138 378 604.138 290.5 615.138 214.5C626.138 138.5 610.138 83.9997 609.638 81.9997C609.138 79.9997 599.138 83.9997 590.638 83.9997C582.138 83.9997 578.638 82.4997 570.138 82.9997Z"
                  stroke="#6EA6E4" />
              </g>
            </svg>