<svg width="80" height="80" viewBox="0 0 80 80" fill="none" xmlns="http://www.w3.org/2000/svg">
<circle cx="40" cy="40" r="40" fill="url(#paint0_linear_1595_3203)"/>
<g clip-path="url(#clip0_1595_3203)">
<path d="M39.9017 52.0567C38.6334 52.0567 37.17 51.5687 35.9993 50.1047C35.8041 49.8119 35.8041 49.4215 36.0968 49.2263C36.3895 49.0311 36.7798 49.0311 36.9749 49.3239C38.9261 51.7639 41.5602 50.3975 41.6578 50.3975C41.6578 50.3975 41.6578 50.3975 41.7554 50.3975C41.8529 50.3975 42.8285 49.9095 42.731 48.5431C42.6334 47.0791 41.2676 46.6887 41.17 46.6887C41.17 46.6887 39.7066 46.2983 38.2432 45.8103C36.6822 45.3223 35.9017 44.3463 35.9017 42.7846C35.9017 42.1014 36.1944 39.759 39.9017 39.759H39.9993C42.5359 39.759 43.7066 41.5158 43.9017 42.4918C43.9993 42.7847 43.8041 43.1751 43.5115 43.2727C43.2188 43.3703 42.8285 43.1751 42.731 42.8823C42.731 42.7846 42.1456 41.1254 39.9993 41.0278C38.731 41.0278 37.17 41.3206 37.17 42.8823C37.17 43.8583 37.5602 44.3463 38.6334 44.6391C40.0968 45.0295 41.5602 45.5175 41.5602 45.5175C41.6578 45.5175 43.8041 46.2007 43.9993 48.4455C44.1944 50.2999 42.9261 51.2759 42.2432 51.5687C41.7554 51.7639 40.8773 52.0567 39.9017 52.0567Z" fill="white"/>
<path d="M40.0971 41.0281C39.7068 41.0281 39.5117 40.7353 39.5117 40.4426V38.1006C39.5117 37.7103 39.8044 37.5151 40.0971 37.5151C40.4873 37.5151 40.6825 37.8079 40.6825 38.1006V40.4426C40.78 40.7353 40.4873 41.0281 40.0971 41.0281Z" fill="white"/>
<path d="M40.0971 54.497C39.7068 54.497 39.5117 54.2043 39.5117 53.9116V51.5696C39.5117 51.1793 39.8044 50.9841 40.0971 50.9841C40.4873 50.9841 40.6825 51.2769 40.6825 51.5696V53.9116C40.78 54.2043 40.4873 54.497 40.0971 54.497Z" fill="white"/>
<path d="M40 61.1344C31.8049 61.1344 24 61.1344 24 51.96C24 45.0303 28.4878 34.5871 34.9268 30.683C35.0244 30.5854 35.122 30.5854 35.2195 30.5854H44.7805C44.878 30.5854 44.9756 30.5854 45.0732 30.683C51.5122 34.5871 56 45.0303 56 51.96C56 61.1344 48.2927 61.1344 40 61.1344ZM35.4146 31.8543C29.561 35.5631 25.2683 45.5183 25.2683 51.96C25.2683 59.4752 30.9268 59.8656 40 59.8656C49.1707 59.8656 54.7317 59.4752 54.7317 51.96C54.7317 45.4207 50.439 35.4655 44.5854 31.8543H35.4146Z" fill="white"/>
<path d="M45.5615 31.8542H34.5371C33.3663 31.8542 32.4883 30.9758 32.4883 29.8046V28.6334C32.4883 27.4621 33.3663 26.5837 34.5371 26.5837H45.5615C46.7322 26.5837 47.6102 27.4621 47.6102 28.6334V29.8046C47.6102 30.8782 46.6346 31.8542 45.5615 31.8542ZM34.5371 27.8525C34.0493 27.8525 33.7566 28.2429 33.7566 28.6334V29.8046C33.7566 30.2926 34.1468 30.5854 34.5371 30.5854H45.5615C46.0493 30.5854 46.3419 30.195 46.3419 29.8046V28.6334C46.3419 28.1453 45.9517 27.8525 45.5615 27.8525H34.5371Z" fill="white"/>
<path d="M44.4866 27.8526C44.389 27.8526 44.2915 27.8526 44.1939 27.755C43.9012 27.5598 43.8037 27.1694 43.9012 26.8766C43.9012 26.779 45.0719 24.6318 47.511 21.1181C47.7061 20.8253 47.9012 20.4349 47.8037 20.2397C47.1207 19.3613 41.7549 20.0445 39.3158 21.1181C37.5597 21.8989 36.389 21.1181 35.2183 20.5325C34.4378 20.1421 33.7549 19.7517 32.8768 19.8493C32.6817 20.5325 34.6329 23.7533 37.1695 26.779C37.3646 27.0718 37.3646 27.4622 37.0719 27.6574C36.7793 27.8526 36.389 27.8526 36.1939 27.5598C34.6329 25.7054 31.0232 21.1181 31.7061 19.3613C31.9012 18.9709 32.1939 18.6781 32.6817 18.5805C33.95 18.3853 35.0232 18.9709 35.9012 19.4589C36.8768 20.0445 37.6573 20.4349 38.828 19.9469C40.6817 19.1661 47.3158 17.6045 48.7793 19.4589C49.1695 19.8493 49.3646 20.6301 48.5841 21.8013C46.2427 25.315 45.0719 27.4622 44.9744 27.4622C44.8768 27.6574 44.6817 27.8526 44.4866 27.8526Z" fill="white"/>
</g>
<defs>
<linearGradient id="paint0_linear_1595_3203" x1="40" y1="0" x2="40" y2="80" gradientUnits="userSpaceOnUse">
<stop stop-color="#F46E7E"/>
<stop offset="1" stop-color="#5D68CD"/>
</linearGradient>
<clipPath id="clip0_1595_3203">
<rect width="32" height="42.5538" fill="white" transform="translate(24 18.5806)"/>
</clipPath>
</defs>
</svg>
