<svg width="80" height="80" viewBox="0 0 80 80" fill="none" xmlns="http://www.w3.org/2000/svg">
<circle cx="40" cy="40" r="40" fill="url(#paint0_linear_1595_3278)"/>
<g clip-path="url(#clip0_1595_3278)">
<path d="M41.1016 44.9176H37.9016C37.5016 44.9176 37.3016 44.6174 37.3016 44.3173V40.2156H33.2016C32.8016 40.2156 32.6016 39.9155 32.6016 39.6154V36.414C32.6016 36.0139 32.9016 35.8138 33.2016 35.8138H37.3016V31.7121C37.3016 31.3119 37.6016 31.1118 37.9016 31.1118H41.1016C41.5016 31.1118 41.7016 31.4119 41.7016 31.7121V35.7137H45.8016C46.2016 35.7137 46.4016 36.0139 46.4016 36.314V39.5153C46.4016 39.9155 46.1016 40.1156 45.8016 40.1156H41.7016V44.2173C41.7016 44.6174 41.5016 44.9176 41.1016 44.9176ZM38.5016 43.617H40.4016V39.5153C40.4016 39.1151 40.7016 38.9151 41.0016 38.9151H45.1016V37.0143H41.0016C40.6016 37.0143 40.4016 36.7141 40.4016 36.414V32.3123H38.5016V36.414C38.5016 36.8142 38.2016 37.0143 37.9016 37.0143H33.8016V38.9151H37.9016C38.3016 38.9151 38.5016 39.2152 38.5016 39.5153V43.617Z" fill="white"/>
<path d="M39.5 61.5244C39.4 61.5244 39.2 61.5244 39.1 61.4244L35.8 59.0234C28.4 53.6211 24 44.9175 24 35.7137V25.9096C24 25.5094 24.3 25.3094 24.6 25.3094C27.3 25.3094 29.5 23.1084 29.5 20.4073C29.6 20.0072 29.8 19.707 30.2 19.707H48.8C49.2 19.707 49.4 20.0072 49.4 20.3073C49.4 23.0084 51.6 25.2093 54.3 25.2093C54.7 25.2093 54.9 25.5094 54.9 25.8096V35.7137C54.9 44.9175 50.5 53.5211 43.1 58.9233L39.8 61.3243C39.8 61.5244 39.6 61.5244 39.5 61.5244ZM25.3 26.5099V35.7137C25.3 44.4173 29.5 52.7208 36.6 57.9229L39.5 60.0238L42.4 57.9229C49.5 52.7208 53.7 44.4173 53.7 35.7137V26.5099C50.8 26.2097 48.5 23.9088 48.2 21.0076H30.8C30.5 23.9088 28.2 26.2097 25.3 26.5099Z" fill="white"/>
</g>
<defs>
<linearGradient id="paint0_linear_1595_3278" x1="40" y1="0" x2="40" y2="80" gradientUnits="userSpaceOnUse">
<stop stop-color="#F46E7E"/>
<stop offset="1" stop-color="#5D68CD"/>
</linearGradient>
<clipPath id="clip0_1595_3278">
<rect width="31" height="41.8174" fill="white" transform="translate(24 19.707)"/>
</clipPath>
</defs>
</svg>
