<svg width="80" height="80" viewBox="0 0 80 80" fill="none" xmlns="http://www.w3.org/2000/svg">
<circle cx="40" cy="40" r="40" fill="url(#paint0_linear_1595_3351)"/>
<g clip-path="url(#clip0_1595_3351)">
<path d="M55 50.5002C53.6 50.5002 52.1 50.4002 50.5 50.1002C50.2 50.1002 50 49.8002 50 49.5002V45.6002C50 43.6002 49.3 41.8002 48.1 40.5002C47.8 40.2002 47.3 39.8002 46.8 39.4002C46.7 39.3002 46.6 39.1002 46.5 39.0002C46.5 38.8002 46.5 38.6002 46.6 38.5002C47.5 37.3002 48.8 36.5002 50.2 36.0002C49.2 34.9002 48.6 33.5002 48.6 32.0002C48.6 28.8002 51.2 26.2002 54.4 26.2002C57.6 26.2002 60.2 28.8002 60.2 32.0002C60.2 33.5002 59.6 34.9002 58.6 36.0002C61.6 36.9002 63.8 39.7002 63.8 42.9002V48.2002C63.8 48.5002 63.6 48.8002 63.3 48.8002L63.1 49.0002C62.8 49.2002 59.9 50.5002 55 50.5002ZM51.3 49.0002C52.6 49.2002 53.8 49.3002 55 49.3002C59.7 49.3002 62.4 48.0002 62.5 47.9002V43.0002C62.5 40.0002 60.1 37.4002 57.1 37.1002C56.8 37.1002 56.6 36.9002 56.5 36.6002C56.4 36.3002 56.5 36.1002 56.8 35.9002C58.2 35.0002 58.9 33.6002 58.9 32.0002C58.9 29.5002 56.9 27.5002 54.4 27.5002C51.9 27.5002 49.9 29.5002 49.9 32.0002C49.9 33.5002 50.7 34.9002 52 35.8002C52.2 35.9002 52.3 36.2002 52.3 36.5002C52.2 36.8002 52 37.0002 51.7 37.0002C50.3 37.1002 49 37.7002 48 38.7002C48.4 39.0002 48.7 39.3002 49 39.6002C50.5 41.2002 51.3 43.3002 51.3 45.6002V49.0002Z" fill="white"/>
<path d="M25.8 50.5C20.9 50.5 18 49.1 17.7 49L17.4 48.8C17.2 48.8 17 48.5 17 48.3V43C17 39.8 19.2 37 22.2 36.1C21.2 35 20.6 33.6 20.6 32.1C20.6 28.9 23.2 26.3 26.4 26.3C29.6 26.3 32.2 28.9 32.2 32.1C32.2 33.6 31.6 35 30.6 36.1C32 36.5 33.3 37.4 34.2 38.6C34.3 38.7 34.4 38.9 34.3 39.1C34.3 39.3 34.2 39.4 34 39.5C33.4 39.9 32.9 40.3 32.6 40.7C31.3 42.1 30.7 43.8 30.7 45.8V49.7001C30.7 50 30.5 50.3 30.2 50.3C28.8 50.4 27.3 50.5 25.8 50.5ZM18.3 47.8C18.4 47.9 21.2 49.2001 25.9 49.2001C27.1 49.2001 28.4 49.1 29.6 48.9V45.6C29.6 43.3001 30.4 41.2 31.8 39.6C32.1 39.3 32.5 38.9 32.8 38.7C31.8 37.7 30.5 37.1 29.1 37C28.8 37 28.6 36.8 28.5 36.5C28.4 36.2 28.5 36 28.8 35.8C30.1 35 30.9 33.6 30.9 32C30.9 29.5 28.9 27.5 26.4 27.5C23.9 27.5 21.9 29.5 21.9 32C21.9 33.6 22.7 35 24 35.8C24.2 35.9 24.3 36.2 24.3 36.5C24.2 36.8 24 37 23.7 37C20.7 37.3 18.3 39.9 18.3 42.9V47.8Z" fill="white"/>
<path d="M41.1016 54.1001C37.7016 54.1001 34.1016 53.5001 30.5016 52.4001L30.0016 52.3001C29.8016 52.2001 29.6016 52.0001 29.6016 51.8001V51.7001V51.6001V45.4001C29.6016 41.6001 32.2016 38.3001 35.7016 37.4001C34.5016 36.2001 33.8016 34.5001 33.8016 32.7001C33.8016 29.0001 36.8016 26.1001 40.4016 26.1001C44.1016 26.1001 47.0016 29.1001 47.0016 32.7001C47.0016 34.5001 46.3016 36.1001 45.1016 37.4001C48.6016 38.4001 51.2016 41.7001 51.2016 45.4001V51.6001C51.2016 51.9001 51.0016 52.2001 50.7016 52.2001L50.4016 52.4001C50.1016 52.5001 46.8016 54.1001 41.1016 54.1001ZM30.8016 51.2001C34.3016 52.3001 37.8016 52.9001 41.0016 52.9001C46.5016 52.9001 49.7016 51.3001 49.8016 51.3001H49.9016V45.5001C49.9016 41.9001 47.1016 38.8001 43.5016 38.5001C43.2016 38.5001 43.0016 38.3001 42.9016 38.0001C42.8016 37.7001 42.9016 37.5001 43.2016 37.3001C44.7016 36.3001 45.7016 34.6001 45.7016 32.8001C45.7016 29.8001 43.3016 27.4001 40.3016 27.4001C37.3016 27.4001 34.9016 29.8001 34.9016 32.8001C34.9016 34.6001 35.8016 36.3001 37.4016 37.3001C37.6016 37.4001 37.7016 37.7001 37.7016 38.0001C37.6016 38.3001 37.4016 38.5001 37.1016 38.5001C33.5016 38.8001 30.7016 41.9001 30.7016 45.5001V51.2001H30.8016Z" fill="white"/>
</g>
<defs>
<linearGradient id="paint0_linear_1595_3351" x1="40" y1="0" x2="40" y2="80" gradientUnits="userSpaceOnUse">
<stop stop-color="#F46E7E"/>
<stop offset="1" stop-color="#5D68CD"/>
</linearGradient>
<clipPath id="clip0_1595_3351">
<rect width="46.8" height="28.1" fill="white" transform="translate(17 26)"/>
</clipPath>
</defs>
</svg>
