<svg width="84" height="84" viewBox="0 0 84 84" fill="none" xmlns="http://www.w3.org/2000/svg">
<path d="M82.5 42C82.5 50.0101 80.1247 57.8404 75.6745 64.5006C71.2243 71.1608 64.8991 76.3518 57.4987 79.4171C50.0983 82.4825 41.9551 83.2845 34.0988 81.7218C26.2426 80.1591 19.0262 76.3019 13.3622 70.6378C7.69815 64.9738 3.8409 57.7574 2.27819 49.9012C0.715493 42.0449 1.51753 33.9017 4.58288 26.5013C7.64823 19.1009 12.8392 12.7757 19.4994 8.32549C26.1596 3.87529 33.9899 1.50001 42 1.50001" stroke="white" stroke-width="3"/>
<path d="M58.0405 45.6662C58.5156 44.0331 58.7564 42.3406 58.7564 40.6201C58.7564 30.6387 50.6006 22.4837 40.62 22.4837C30.6393 22.4837 22.4844 30.6395 22.4844 40.6201C22.4844 50.5759 30.6201 58.6762 40.6208 58.6762C43.1077 58.6762 45.5657 58.1747 47.8055 57.2205C49.1377 60.1047 51.6126 62.395 54.7648 63.4455L55.1451 63.5723L55.5255 63.4455C60.3381 61.8413 63.5705 57.3489 63.5705 52.2667V46.6388H62.3668C60.7209 46.638 59.1985 46.1685 58.0405 45.6662ZM46.7189 46.638V52.2659C46.7189 53.1791 46.8241 54.0739 47.0231 54.9358C45.0377 55.8089 42.8437 56.2672 40.62 56.2672C31.9474 56.2672 24.8911 49.2469 24.8911 40.6185C24.8911 31.9459 31.9466 24.8896 40.62 24.8896C49.2933 24.8896 56.3489 31.9451 56.3489 40.6185C56.3489 41.929 56.1876 43.2194 55.8706 44.4721C55.8682 44.4705 55.1467 43.9368 55.1467 43.9368L54.4293 44.4665C54.3996 44.4881 51.4448 46.6372 47.9235 46.6372L46.7189 46.638ZM61.1638 52.2659C61.1638 56.1749 58.762 59.6449 55.1451 61.0243C51.5283 59.6441 49.1264 56.1749 49.1264 52.2659V48.9821C51.8244 48.6988 54.0537 47.5416 55.1451 46.8755C56.2365 47.5416 58.4659 48.6988 61.1638 48.9821V52.2659Z" fill="white"/>
<path d="M54.6373 49.8728C53.1229 50.5766 52.0869 50.8254 51.5332 51.0116V52.2667C51.5332 54.5201 52.6222 56.6419 54.4455 57.9419L55.1436 58.4395L55.8418 57.9419C57.6659 56.6427 58.7541 54.5209 58.7541 52.2667V51.0116C58.2196 50.8318 57.1876 50.5879 55.65 49.8728L55.1428 49.6369L54.6373 49.8728ZM56.3225 52.753C56.2182 53.7328 55.8017 54.6493 55.1444 55.3643C54.4872 54.6493 54.0707 53.7328 53.9664 52.753C54.3596 52.6101 54.7536 52.4537 55.1444 52.2835C55.5352 52.4529 55.9293 52.6101 56.3225 52.753Z" fill="white"/>
<path d="M39.416 27.2986H41.8235V29.7061H39.416V27.2986Z" fill="white"/>
<path d="M39.416 51.453H41.8235V53.8605H39.416V51.453Z" fill="white"/>
<path d="M27.2988 39.4163H29.7063V41.8238H27.2988V39.4163Z" fill="white"/>
<path d="M51.5332 39.4163H53.9407V41.8238H51.5332V39.4163Z" fill="white"/>
<path d="M41.8233 32.1136H39.4158V40.1209L34.9531 44.5828L36.6552 46.2849L41.1179 41.8222H46.7185V39.4147H41.8233V32.1136Z" fill="white"/>
</svg>
