<svg width="84" height="84" viewBox="0 0 84 84" fill="none" xmlns="http://www.w3.org/2000/svg">
<path d="M82.5 42C82.5 50.0101 80.1247 57.8404 75.6745 64.5006C71.2243 71.1608 64.8991 76.3518 57.4987 79.4171C50.0983 82.4825 41.9551 83.2845 34.0988 81.7218C26.2426 80.1591 19.0262 76.3019 13.3622 70.6378C7.69815 64.9738 3.8409 57.7574 2.27819 49.9012C0.715493 42.0449 1.51753 33.9017 4.58288 26.5013C7.64823 19.1009 12.8392 12.7757 19.4994 8.32549C26.1596 3.87529 33.9899 1.50001 42 1.50001" stroke="white" stroke-width="3"/>
<path d="M60.49 29.2887V23.5109H54.7121V26.3998H29.2896V23.5109H23.5117V29.2887H26.4006V54.7113H23.5117V60.4891H29.2896V57.6002H54.7121V60.4891H60.49V54.7113H57.6011V29.2887H60.49ZM54.7121 45.3223H48.212V38.6777H54.7121V45.3223ZM45.3231 45.3223H38.6786V38.6777H45.3231V45.3223ZM45.3231 48.2112V54.7113H38.6786V48.2112H45.3231ZM29.2896 38.6777H35.7897V45.3223H29.2896V38.6777ZM38.6786 35.7888V29.2887H45.3231V35.7888H38.6786ZM35.7897 29.2887V35.7888H29.2896V29.2887H35.7897ZM29.2896 48.2112H35.7897V54.7113H29.2896V48.2112ZM48.212 54.7113V48.2112H54.7121V54.7113H48.212ZM54.7121 35.7888H48.212V29.2887H54.7121V35.7888Z" fill="white"/>
</svg>
