<svg width="84" height="84" viewBox="0 0 84 84" fill="none" xmlns="http://www.w3.org/2000/svg">
<path d="M82.5 42C82.5 50.0101 80.1247 57.8404 75.6745 64.5006C71.2243 71.1608 64.8991 76.3518 57.4987 79.4171C50.0983 82.4825 41.9551 83.2845 34.0988 81.7218C26.2426 80.1591 19.0262 76.3019 13.3622 70.6378C7.69815 64.9738 3.8409 57.7574 2.27819 49.9012C0.715493 42.0449 1.51753 33.9017 4.58288 26.5013C7.64823 19.1009 12.8392 12.7757 19.4994 8.32549C26.1596 3.87529 33.9899 1.50001 42 1.50001" stroke="white" stroke-width="3"/>
<path d="M59.0259 23.5109H56.3135C55.8682 23.5109 55.5079 23.8686 55.5079 24.309V28.885H24.9751C23.0355 28.885 21.457 30.4488 21.457 32.3702V56.2788C21.457 58.2003 23.0355 59.7641 24.9751 59.7641H56.3135H59.0259C59.9648 59.7641 60.8484 59.4015 61.5136 58.7433C62.1781 58.085 62.544 57.2098 62.544 56.2788V26.9961C62.544 25.0746 60.9655 23.5109 59.0259 23.5109ZM60.3749 57.6144C60.0138 57.9714 59.5347 58.1677 59.0259 58.1677H56.3135H24.9751C23.9239 58.1677 23.0684 57.3203 23.0684 56.2788V32.3702C23.0684 31.3288 23.9239 30.4821 24.9751 30.4821H55.5079V32.7471H28.624C28.1794 32.7471 27.8183 33.1048 27.8183 33.5452V55.1054C27.8183 55.5458 28.1794 55.9036 28.624 55.9036H56.3135C56.7589 55.9036 57.1192 55.5458 57.1192 55.1054V54.3851L59.0259 54.3899C60.0772 54.3899 60.9326 55.2374 60.9326 56.2788C60.9326 56.7836 60.7344 57.2583 60.3749 57.6144ZM55.5079 34.3426V54.3064H29.4297V34.3426H55.5079ZM60.9326 53.3517C60.3829 52.9995 59.7297 52.7936 59.0275 52.7936L57.1184 52.7888V33.5445V25.1072H59.0251C60.0764 25.1072 60.9318 25.9547 60.9318 26.9961V53.3517H60.9326Z" fill="white"/>
<path d="M25.4853 42.0403C25.0408 42.0403 24.6797 42.3999 24.6797 42.8427V45.266C24.6797 45.7088 25.04 46.0684 25.4853 46.0684C25.9307 46.0684 26.2909 45.7088 26.2909 45.266V42.8427C26.2909 42.3991 25.9307 42.0403 25.4853 42.0403Z" fill="white"/>
<path d="M35.2282 36.4009H32.6593C32.2567 36.4009 31.9297 36.7278 31.9297 37.1304V39.6995C31.9297 40.1021 32.256 40.429 32.6593 40.429H35.2282C35.6308 40.429 35.9578 40.1021 35.9578 39.6995V37.1304C35.9578 36.7278 35.6315 36.4009 35.2282 36.4009ZM34.4986 38.97H33.3889V37.8598H34.4986V38.97Z" fill="white"/>
<path d="M41.5267 36.4009H38.4437C37.9607 36.4009 37.5684 36.7278 37.5684 37.1304V39.6995C37.5684 40.1021 37.9598 40.429 38.4437 40.429H41.5267C42.0098 40.429 42.4021 40.1021 42.4021 39.6995V37.1304C42.4021 36.7278 42.0098 36.4009 41.5267 36.4009ZM40.6514 38.97H39.3191V37.8598H40.6514V38.97Z" fill="white"/>
<path d="M47.3122 36.4009H44.7433C44.34 36.4009 44.0137 36.7278 44.0137 37.1304V39.6995C44.0137 40.1021 44.34 40.429 44.7433 40.429H47.3122C47.7155 40.429 48.0418 40.1021 48.0418 39.6995V37.1304C48.0418 36.7278 47.7155 36.4009 47.3122 36.4009ZM46.5826 38.97H45.4729V37.8598H46.5826V38.97Z" fill="white"/>
<path d="M53.6127 36.4009H50.5297C50.0458 36.4009 49.6543 36.7278 49.6543 37.1304V39.6995C49.6543 40.1021 50.0458 40.429 50.5297 40.429H53.6127C54.0966 40.429 54.4881 40.1021 54.4881 39.6995V37.1304C54.4881 36.7278 54.0957 36.4009 53.6127 36.4009ZM52.7373 38.97H51.4051V37.8598H52.7373V38.97Z" fill="white"/>
<path d="M35.2282 42.0403H32.6593C32.2567 42.0403 31.9297 42.4326 31.9297 42.9157V45.9987C31.9297 46.4817 32.256 46.874 32.6593 46.874H35.2282C35.6308 46.874 35.9578 46.4817 35.9578 45.9987V42.9157C35.9578 42.4318 35.6315 42.0403 35.2282 42.0403ZM34.4986 45.1224H33.3889V43.7902H34.4986V45.1224Z" fill="white"/>
<path d="M41.5267 42.0403H38.4437C37.9607 42.0403 37.5684 42.4326 37.5684 42.9157V45.9987C37.5684 46.4817 37.9598 46.874 38.4437 46.874H41.5267C42.0098 46.874 42.4021 46.4817 42.4021 45.9987V42.9157C42.4021 42.4318 42.0098 42.0403 41.5267 42.0403ZM40.6514 45.1224H39.3191V43.7902H40.6514V45.1224Z" fill="white"/>
<path d="M47.3122 42.0403H44.7433C44.34 42.0403 44.0137 42.4326 44.0137 42.9157V45.9987C44.0137 46.4817 44.34 46.874 44.7433 46.874H47.3122C47.7155 46.874 48.0418 46.4817 48.0418 45.9987V42.9157C48.0418 42.4318 47.7155 42.0403 47.3122 42.0403ZM46.5826 45.1224H45.4729V43.7902H46.5826V45.1224Z" fill="white"/>
<path d="M53.6127 42.0403H50.5297C50.0458 42.0403 49.6543 42.4326 49.6543 42.9157V45.9987C49.6543 46.4817 50.0458 46.874 50.5297 46.874H53.6127C54.0966 46.874 54.4881 46.4817 54.4881 45.9987V42.9157C54.4881 42.4318 54.0957 42.0403 53.6127 42.0403ZM52.7373 45.1224H51.4051V43.7902H52.7373V45.1224Z" fill="white"/>
<path d="M35.2282 47.6797H32.6593C32.2567 47.6797 31.9297 48.0721 31.9297 48.5552V51.6379C31.9297 52.1219 32.256 52.5134 32.6593 52.5134H35.2282C35.6308 52.5134 35.9578 52.121 35.9578 51.6379V48.5552C35.9578 48.0712 35.6315 47.6797 35.2282 47.6797ZM34.4986 50.7615H33.3889V49.4299H34.4986V50.7615Z" fill="white"/>
<path d="M41.5267 47.6797H38.4437C37.9607 47.6797 37.5684 48.0721 37.5684 48.5552V51.6379C37.5684 52.1219 37.9598 52.5134 38.4437 52.5134H41.5267C42.0098 52.5134 42.4021 52.121 42.4021 51.6379V48.5552C42.4021 48.0712 42.0098 47.6797 41.5267 47.6797ZM40.6514 50.7615H39.3191V49.4299H40.6514V50.7615Z" fill="white"/>
<path d="M47.3122 47.6797H44.7433C44.34 47.6797 44.0137 48.0721 44.0137 48.5552V51.6379C44.0137 52.1219 44.34 52.5134 44.7433 52.5134H47.3122C47.7155 52.5134 48.0418 52.121 48.0418 51.6379V48.5552C48.0418 48.0712 47.7155 47.6797 47.3122 47.6797ZM46.5826 50.7615H45.4729V49.4299H46.5826V50.7615Z" fill="white"/>
<path d="M53.6127 47.6797H50.5297C50.0458 47.6797 49.6543 48.0721 49.6543 48.5552V51.6379C49.6543 52.1219 50.0458 52.5134 50.5297 52.5134H53.6127C54.0966 52.5134 54.4881 52.121 54.4881 51.6379V48.5552C54.4881 48.0712 54.0957 47.6797 53.6127 47.6797ZM52.7373 50.7615H51.4051V49.4299H52.7373V50.7615Z" fill="white"/>
<path d="M59.3213 29.1503C58.2479 29.1503 58.2463 30.7615 59.3213 30.7615C60.3946 30.7607 60.3962 29.1503 59.3213 29.1503Z" fill="white"/>
<path d="M59.3213 32.3727C58.2479 32.3727 58.2463 33.984 59.3213 33.984C60.3946 33.984 60.3962 32.3727 59.3213 32.3727Z" fill="white"/>
<path d="M59.3213 36.4009C58.2479 36.4009 58.2463 38.0121 59.3213 38.0121C60.3946 38.0121 60.3962 36.4009 59.3213 36.4009Z" fill="white"/>
<path d="M25.4853 46.874C24.412 46.874 24.4103 48.4853 25.4853 48.4853C26.5587 48.4853 26.5603 46.874 25.4853 46.874Z" fill="white"/>
</svg>
