<svg width="80" height="80" viewBox="0 0 80 80" fill="none" xmlns="http://www.w3.org/2000/svg">
<circle cx="40" cy="40" r="40" fill="url(#paint0_linear_1595_3250)"/>
<g clip-path="url(#clip0_1595_3250)">
<path d="M26.9994 58.3969C26.5994 58.3969 26.1994 58.2968 25.7994 57.9967C25.1994 57.4965 24.8994 56.7962 24.9994 55.9959L31.0994 23.1828C31.1994 22.6826 31.4994 22.1824 31.9994 21.8823C32.3994 21.5822 32.9994 21.4822 33.4994 21.5822C44.1994 23.8831 53.4995 30.6858 58.9995 40.1896C59.2995 40.6898 59.2995 41.2901 59.1995 41.7903C58.9995 42.2905 58.6995 42.7907 58.1995 42.9907L27.8994 58.1968C27.5994 58.2968 27.2994 58.3969 26.9994 58.3969ZM33.0994 23.0828C32.9994 23.0828 32.8994 23.0828 32.7994 23.1828C32.6994 23.2829 32.5994 23.3829 32.5994 23.483L26.4994 56.2961C26.3994 56.5962 26.5994 56.6962 26.6994 56.7962C26.7994 56.8963 26.9994 56.9963 27.1994 56.7962L57.4995 41.5902C57.5995 41.4901 57.6995 41.3901 57.7995 41.2901C57.7995 41.19 57.7995 40.9899 57.7995 40.8899C52.3995 31.8863 43.4994 25.2837 33.1994 23.0828C33.0994 23.0828 33.0994 23.0828 33.0994 23.0828Z" fill="white"/>
<path d="M52.5005 39.7895C52.3005 39.7895 52.0005 39.6895 51.9005 39.4894C47.9005 33.9872 42.4005 29.9856 35.9005 27.8848C35.5005 27.7848 35.3005 27.3846 35.4005 26.9844C35.5005 26.5843 35.9005 26.3842 36.3005 26.4842C43.2005 28.5851 49.0005 32.7868 53.1005 38.5891C53.3005 38.8892 53.3005 39.3894 52.9005 39.5895C52.8005 39.7895 52.7005 39.7895 52.5005 39.7895Z" fill="white"/>
<path d="M36.9984 36.8884C35.5984 36.8884 34.3984 35.6879 34.3984 34.2873C34.3984 32.8868 35.5984 31.6863 36.9984 31.6863C38.3984 31.6863 39.5984 32.8868 39.5984 34.2873C39.5984 35.7879 38.3984 36.8884 36.9984 36.8884ZM36.9984 33.1869C36.3984 33.1869 35.8984 33.6871 35.8984 34.2873C35.8984 34.8876 36.3984 35.3878 36.9984 35.3878C37.5984 35.3878 38.0984 34.8876 38.0984 34.2873C38.0984 33.6871 37.5984 33.1869 36.9984 33.1869Z" fill="white"/>
<path d="M44.2992 42.5905C42.8992 42.5905 41.6992 41.39 41.6992 39.9895C41.6992 38.5889 42.8992 37.3884 44.2992 37.3884C45.6992 37.3884 46.8992 38.5889 46.8992 39.9895C46.8992 41.39 45.7992 42.5905 44.2992 42.5905ZM44.2992 38.889C43.6992 38.889 43.1992 39.3892 43.1992 39.9895C43.1992 40.5897 43.6992 41.0899 44.2992 41.0899C44.8992 41.0899 45.3992 40.5897 45.3992 39.9895C45.3992 39.3892 44.8992 38.889 44.2992 38.889Z" fill="white"/>
<path d="M34.1977 48.893C32.7977 48.893 31.5977 47.6925 31.5977 46.292C31.5977 44.8914 32.7977 43.6909 34.1977 43.6909C35.5977 43.6909 36.7977 44.8914 36.7977 46.292C36.8977 47.6925 35.6977 48.893 34.1977 48.893ZM34.1977 45.0915C33.5977 45.0915 33.0977 45.5917 33.0977 46.1919C33.0977 46.7922 33.5977 47.2924 34.1977 47.2924C34.7977 47.2924 35.2977 46.7922 35.2977 46.1919C35.3977 45.5917 34.8977 45.0915 34.1977 45.0915Z" fill="white"/>
<path d="M34.1008 39.8891C34.0008 39.8891 33.9008 39.8891 33.8008 39.7891C33.6008 39.6891 33.4008 39.7891 33.4008 39.7891C33.0008 39.9891 32.6008 39.7891 32.4008 39.489C32.2008 39.089 32.4008 38.6889 32.7008 38.4888C32.8008 38.4888 33.5008 38.0888 34.4008 38.4888C34.8008 38.6889 35.0008 39.089 34.8008 39.489C34.7008 39.6891 34.4008 39.8891 34.1008 39.8891Z" fill="white"/>
<path d="M40.5998 46.6917C40.3998 46.6917 40.0998 46.5917 39.9998 46.3916C39.8998 46.2916 39.4998 45.6915 39.6998 44.6913C39.7998 44.2912 40.1998 43.9911 40.5998 44.0912C40.9998 44.1912 41.2998 44.5913 41.1998 44.9913C41.0998 45.2914 41.1998 45.3914 41.1998 45.3914C41.3998 45.6915 41.3998 46.1916 41.0998 46.4916C40.8998 46.5917 40.6998 46.6917 40.5998 46.6917Z" fill="white"/>
<path d="M29.9992 52.7941C29.4992 52.7941 29.1992 52.3941 29.1992 51.994C29.1992 51.894 29.2992 51.0938 29.9992 50.4937C30.2992 50.1936 30.7992 50.2936 31.0992 50.5937C31.3992 50.8938 31.2992 51.3939 30.9992 51.6939C30.7992 51.894 30.7992 52.094 30.6992 52.094C30.6992 52.4941 30.3992 52.7941 29.9992 52.7941Z" fill="white"/>
</g>
<defs>
<linearGradient id="paint0_linear_1595_3250" x1="40" y1="0" x2="40" y2="80" gradientUnits="userSpaceOnUse">
<stop stop-color="#F46E7E"/>
<stop offset="1" stop-color="#5D68CD"/>
</linearGradient>
<clipPath id="clip0_1595_3250">
<rect width="34.3" height="36.8147" fill="white" transform="translate(25 21.5823)"/>
</clipPath>
</defs>
</svg>
