<svg width="80" height="80" viewBox="0 0 80 80" fill="none" xmlns="http://www.w3.org/2000/svg">
<circle cx="40" cy="40" r="40" fill="url(#paint0_linear_1595_3375)"/>
<g clip-path="url(#clip0_1595_3375)">
<path d="M40.2016 40.6153C40.0016 40.6153 39.9016 40.5153 39.7016 40.4153L36.1016 36.8138C35.8016 36.5137 35.8016 36.1135 36.1016 35.9134C36.4016 35.6133 36.8016 35.6133 37.0016 35.9134L40.2016 39.1147L43.8016 35.5133C44.0016 35.3132 44.3016 35.3132 44.5016 35.4132C44.7016 35.5133 44.9016 35.8134 44.9016 36.0135C44.8016 36.7138 45.1016 37.4141 45.6016 37.9143C46.0016 38.3144 46.6016 38.6145 47.3016 38.6145C47.9016 38.6145 48.5016 38.3144 49.0016 37.9143C49.4016 37.5141 49.7016 36.9138 49.6016 36.2136C49.6016 35.6133 49.3016 35.0131 48.9016 34.5129C48.4016 34.0127 47.7016 33.8126 47.0016 33.9126C46.7016 33.9126 46.5016 33.8126 46.4016 33.5125C46.3016 33.3124 46.3016 33.0123 46.5016 32.8122L50.1016 29.2107L40.1016 19.2067L30.1016 29.2107L33.3016 32.412C33.6016 32.7121 33.6016 33.1123 33.3016 33.3124C33.0016 33.6125 32.6016 33.6125 32.4016 33.3124L28.8016 29.7109C28.7016 29.6109 28.6016 29.4108 28.6016 29.2107C28.6016 29.0106 28.7016 28.9106 28.8016 28.7105L39.6016 18.0062C40.0016 17.606 40.6016 17.606 41.0016 18.0062L51.6016 28.6105C51.7016 28.7105 51.8016 28.9106 51.8016 29.1107C51.8016 29.3108 51.7016 29.4108 51.6016 29.6109L48.4016 32.7121C48.9016 32.9122 49.4016 33.1123 49.8016 33.5125C50.5016 34.2128 50.9016 35.1131 50.9016 36.1135C50.9016 37.1139 50.6016 38.0143 49.9016 38.7146C49.2016 39.4149 48.3016 39.815 47.3016 39.815C46.3016 39.815 45.4016 39.4149 44.7016 38.7146C44.3016 38.3144 44.0016 37.8142 43.8016 37.214L40.7016 40.3152C40.6016 40.5153 40.4016 40.6153 40.2016 40.6153Z" fill="white"/>
<path d="M51.0992 51.4197C50.8992 51.4197 50.7992 51.3197 50.5992 51.2197L47.4992 48.1184C47.2992 48.6186 47.0992 49.1188 46.6992 49.519C45.9992 50.2192 45.0992 50.6194 44.0992 50.6194C43.0992 50.6194 42.1992 50.3193 41.4992 49.619C40.7992 48.9187 40.3992 48.0184 40.3992 47.0179C40.3992 46.0175 40.7992 45.1172 41.4992 44.4169C41.8992 44.0167 42.3992 43.7166 42.9992 43.5165L39.8992 40.4153C39.7992 40.3152 39.6992 40.1151 39.6992 39.9151C39.6992 39.715 39.7992 39.6149 39.8992 39.4149L43.7992 35.5133C44.0992 35.2132 44.4992 35.2132 44.6992 35.5133C44.9992 35.8134 44.9992 36.2136 44.6992 36.4136L41.2992 39.815L44.8992 43.4165C45.0992 43.6166 45.0992 43.9167 44.9992 44.1168C44.8992 44.3169 44.5992 44.5169 44.3992 44.5169C43.6992 44.4169 42.9992 44.717 42.4992 45.2172C41.9992 45.7174 41.7992 46.3177 41.7992 46.9179C41.7992 47.5182 42.0992 48.1184 42.4992 48.6186C42.8992 49.0188 43.4992 49.3189 44.1992 49.2188C44.7992 49.2188 45.3992 48.9187 45.8992 48.5186C46.3992 48.0184 46.5992 47.3181 46.4992 46.6178C46.4992 46.3177 46.5992 46.1176 46.8992 46.0175C47.0992 45.9175 47.3992 45.9175 47.5992 46.1176L51.1992 49.719L61.1992 39.715L51.1992 29.7109L47.6992 33.2123C47.3992 33.5125 46.9992 33.5125 46.7992 33.2123C46.4992 32.9122 46.4992 32.5121 46.7992 32.312L50.6992 28.4104C50.9992 28.1103 51.3992 28.1103 51.5992 28.4104L62.1992 39.0147C62.3992 39.2148 62.4992 39.4149 62.4992 39.715C62.4992 40.0151 62.3992 40.2152 62.1992 40.4153L51.5992 51.3197C51.3992 51.4197 51.2992 51.4197 51.0992 51.4197Z" fill="white"/>
<path d="M40.2008 62.2241C39.9008 62.2241 39.7008 62.1241 39.5008 61.924L28.9008 51.3197C28.6008 51.0196 28.6008 50.6194 28.9008 50.4193L32.0008 47.3181C31.5008 47.118 31.0008 46.9179 30.6008 46.5178C29.9008 45.8175 29.5008 44.9171 29.5008 43.9167C29.5008 42.9163 29.8008 42.0159 30.5008 41.3157C31.2008 40.6154 32.1008 40.2152 33.1008 40.2152C34.1008 40.2152 35.0008 40.6154 35.7008 41.3157C36.1008 41.7158 36.4008 42.216 36.6008 42.8163L39.7008 39.715C39.9008 39.5149 40.4008 39.5149 40.6008 39.715L44.5008 43.6166C44.8008 43.9167 44.8008 44.3169 44.5008 44.517C44.2008 44.8171 43.8008 44.8171 43.6008 44.517L40.2008 41.1156L36.6008 44.717C36.4008 44.9171 36.1008 44.9171 35.9008 44.8171C35.7008 44.717 35.5008 44.4169 35.5008 44.2168C35.6008 43.5165 35.3008 42.8163 34.8008 42.3161C34.3008 41.8159 33.7008 41.6158 33.1008 41.6158C32.5008 41.6158 31.9008 41.9159 31.4008 42.3161C31.0008 42.7162 30.7008 43.3165 30.8008 44.0167C30.8008 44.617 31.1008 45.2172 31.5008 45.7174C32.0008 46.2176 32.7008 46.4177 33.4008 46.3177C33.7008 46.3177 33.9008 46.4177 34.0008 46.7178C34.1008 46.9179 34.1008 47.218 33.9008 47.4181L30.3008 51.0196L40.3008 61.0236L50.3008 51.0196L46.8008 47.5182C46.5008 47.218 46.5008 46.8179 46.8008 46.6178C47.1008 46.3177 47.5008 46.3177 47.7008 46.6178L51.6008 50.5194C51.7008 50.6194 51.8008 50.8195 51.8008 51.0196C51.8008 51.2197 51.7008 51.3197 51.6008 51.5198L40.9008 61.924C40.7008 62.1241 40.5008 62.2241 40.2008 62.2241Z" fill="white"/>
<path d="M29.4 51.4198C29.2 51.4198 29.1 51.3197 28.9 51.2197L18.3 40.6154C18.1 40.4153 18 40.2152 18 39.9151C18 39.615 18.1 39.4149 18.3 39.2148L28.9 28.6105C29.1 28.4104 29.6 28.4104 29.8 28.6105L32.9 31.7118C33.1 31.2116 33.3 30.7114 33.7 30.3112C34.4 29.6109 35.3 29.2108 36.3 29.2108C37.3 29.2108 38.2 29.5109 38.9 30.2112C39.6 30.9114 40 31.8118 40 32.8122C40 33.8126 39.6 34.713 38.9 35.4133C38.5 35.8134 38 36.1136 37.4 36.3136L40.5 39.4149C40.6 39.5149 40.7 39.715 40.7 39.9151C40.7 40.1152 40.6 40.2152 40.5 40.4153L36.6 44.3169C36.3 44.617 35.9 44.617 35.7 44.3169C35.4 44.0168 35.4 43.6166 35.7 43.4165L39.1 40.0151L35.5 36.4137C35.3 36.2136 35.3 35.9135 35.4 35.7134C35.5 35.5133 35.8 35.3132 36 35.3132C36.7 35.4133 37.4 35.1131 37.9 34.6129C38.4 34.1127 38.6 33.5125 38.6 32.9123C38.6 32.312 38.3 31.7118 37.9 31.2116C37.5 30.8114 36.9 30.5113 36.2 30.6113C35.6 30.6113 35 30.9114 34.5 31.3116C34 31.8118 33.8 32.5121 33.9 33.2124C33.9 33.5125 33.8 33.7126 33.5 33.8126C33.3 33.9127 33 33.9127 32.8 33.7126L29.2 30.1111L19.2 40.1152L29.2 50.1192L32.7 46.6178C33 46.3177 33.4 46.3177 33.6 46.6178C33.9 46.9179 33.9 47.3181 33.6 47.5182L29.7 51.4198C29.7 51.4198 29.5 51.4198 29.4 51.4198Z" fill="white"/>
</g>
<defs>
<linearGradient id="paint0_linear_1595_3375" x1="40" y1="0" x2="40" y2="80" gradientUnits="userSpaceOnUse">
<stop stop-color="#F46E7E"/>
<stop offset="1" stop-color="#5D68CD"/>
</linearGradient>
<clipPath id="clip0_1595_3375">
<rect width="44.5" height="44.5181" fill="white" transform="translate(18 17.7061)"/>
</clipPath>
</defs>
</svg>
