<svg width="80" height="80" viewBox="0 0 80 80" fill="none" xmlns="http://www.w3.org/2000/svg">
<circle cx="40" cy="40" r="40" fill="url(#paint0_linear_1595_3221)"/>
<g clip-path="url(#clip0_1595_3221)">
<path d="M59.254 56.6792H20.746C19.776 56.6792 19 55.9029 19 54.9326V31.3527C19 30.9646 19.291 30.7705 19.582 30.7705H60.321C60.709 30.7705 60.903 31.0616 60.903 31.3527V54.9326C61 55.9029 60.224 56.6792 59.254 56.6792ZM20.261 31.9349V54.9326C20.261 55.2237 20.455 55.4178 20.746 55.4178H59.254C59.545 55.4178 59.739 55.2237 59.739 54.9326V31.9349H20.261Z" fill="white"/>
<path d="M60.321 31.9342H19.582C19.194 31.9342 19 31.6431 19 31.352V26.112C19 25.1417 19.776 24.4624 20.746 24.4624H25.5958C25.9838 24.4624 26.1778 24.7535 26.1778 25.0446V26.112C26.1778 26.9853 26.8568 27.6646 27.7298 27.6646C28.6028 27.6646 29.2818 26.9853 29.2818 26.112V25.0446C29.3788 24.6565 29.6697 24.4624 29.9607 24.4624H49.9423C50.3303 24.4624 50.5243 24.7535 50.5243 25.0446V26.112C50.5243 26.9853 51.2032 27.6646 52.0762 27.6646C52.9492 27.6646 53.6282 26.9853 53.6282 26.112V25.0446C53.6282 24.6565 53.9192 24.4624 54.2102 24.4624H59.06C60.03 24.4624 60.806 25.2387 60.806 26.2091V31.352C61 31.6431 60.709 31.9342 60.321 31.9342ZM20.261 30.6727H59.739V26.112C59.739 25.8209 59.545 25.6268 59.254 25.6268H54.9861V26.015C54.9861 27.5676 53.7252 28.829 52.1732 28.829C50.6212 28.829 49.3603 27.5676 49.3603 26.015V25.6268H30.6397V26.015C30.6397 27.5676 29.3788 28.829 27.8268 28.829C26.2748 28.829 25.0139 27.5676 25.0139 26.015V25.6268H20.746C20.455 25.6268 20.261 25.8209 20.261 26.112V30.6727Z" fill="white"/>
<path d="M27.8286 28.9269C26.2766 28.9269 25.0156 27.6654 25.0156 26.1129V23.3958C25.0156 21.8433 26.2766 20.5818 27.8286 20.5818C29.3805 20.5818 30.6415 21.8433 30.6415 23.3958V26.1129C30.6415 27.6654 29.3805 28.9269 27.8286 28.9269ZM27.8286 21.8433C26.9556 21.8433 26.1796 22.5225 26.1796 23.3958V26.1129C26.1796 26.9862 26.8586 27.6654 27.7316 27.6654C28.6045 27.6654 29.2835 26.9862 29.2835 26.1129V23.3958C29.3805 22.5225 28.7015 21.8433 27.8286 21.8433Z" fill="white"/>
<path d="M52.1723 28.9269C50.6203 28.9269 49.3594 27.6654 49.3594 26.1129V23.3958C49.3594 21.8433 50.6203 20.5818 52.1723 20.5818C53.7243 20.5818 54.9852 21.8433 54.9852 23.3958V26.1129C54.9852 27.6654 53.7243 28.9269 52.1723 28.9269ZM52.1723 21.8433C51.2993 21.8433 50.6203 22.5225 50.6203 23.3958V26.1129C50.6203 26.9862 51.2993 27.6654 52.1723 27.6654C53.0453 27.6654 53.7243 26.9862 53.7243 26.1129V23.3958C53.7243 22.5225 53.0453 21.8433 52.1723 21.8433Z" fill="white"/>
<path d="M28.5067 42.1238H23.7539C23.3659 42.1238 23.1719 41.8327 23.1719 41.5416V36.7868C23.1719 36.3987 23.4629 36.2046 23.7539 36.2046H28.5067C28.8947 36.2046 29.0887 36.4957 29.0887 36.7868V41.5416C29.1857 41.8327 28.8947 42.1238 28.5067 42.1238ZM24.4328 40.8623H27.9248V37.369H24.4328V40.8623Z" fill="white"/>
<path d="M37.8192 42.1238H33.0664C32.6784 42.1238 32.4844 41.8327 32.4844 41.5416V36.7868C32.4844 36.3987 32.7754 36.2046 33.0664 36.2046H37.8192C38.2072 36.2046 38.4012 36.4957 38.4012 36.7868V41.5416C38.4012 41.8327 38.1102 42.1238 37.8192 42.1238ZM33.6483 40.8623H37.1403V37.369H33.6483V40.8623Z" fill="white"/>
<path d="M47.0341 42.1238H42.2812C41.8932 42.1238 41.6992 41.8327 41.6992 41.5416V36.7868C41.6992 36.3987 41.9902 36.2046 42.2812 36.2046H47.0341C47.4221 36.2046 47.6161 36.4957 47.6161 36.7868V41.5416C47.7131 41.8327 47.4221 42.1238 47.0341 42.1238ZM42.9602 40.8623H46.4521V37.369H42.9602V40.8623Z" fill="white"/>
<path d="M56.3466 42.1238H51.5937C51.2057 42.1238 51.0117 41.8327 51.0117 41.5416V36.7868C51.0117 36.3987 51.3027 36.2046 51.5937 36.2046H56.3466C56.7346 36.2046 56.9286 36.4957 56.9286 36.7868V41.5416C56.9286 41.8327 56.7346 42.1238 56.3466 42.1238ZM52.1757 40.8623H55.6676V37.369H52.1757V40.8623Z" fill="white"/>
<path d="M28.5067 51.3423H23.7539C23.3659 51.3423 23.1719 51.0512 23.1719 50.7601V46.0053C23.1719 45.6172 23.4629 45.4231 23.7539 45.4231H28.5067C28.8947 45.4231 29.0887 45.7142 29.0887 46.0053V50.7601C29.1857 51.0512 28.8947 51.3423 28.5067 51.3423ZM24.4328 50.0808H27.9248V46.5875H24.4328V50.0808Z" fill="white"/>
<path d="M37.8192 51.3423H33.0664C32.6784 51.3423 32.4844 51.0512 32.4844 50.7601V46.0053C32.4844 45.6172 32.7754 45.4231 33.0664 45.4231H37.8192C38.2072 45.4231 38.4012 45.7142 38.4012 46.0053V50.7601C38.4012 51.0512 38.1102 51.3423 37.8192 51.3423ZM33.6483 50.0808H37.1403V46.5875H33.6483V50.0808Z" fill="white"/>
<path d="M47.0341 51.3423H42.2812C41.8932 51.3423 41.6992 51.0512 41.6992 50.7601V46.0053C41.6992 45.6172 41.9902 45.4231 42.2812 45.4231H47.0341C47.4221 45.4231 47.6161 45.7142 47.6161 46.0053V50.7601C47.7131 51.0512 47.4221 51.3423 47.0341 51.3423ZM42.9602 50.0808H46.4521V46.5875H42.9602V50.0808Z" fill="white"/>
<path d="M56.3466 51.3423H51.5937C51.2057 51.3423 51.0117 51.0512 51.0117 50.7601V46.0053C51.0117 45.6172 51.3027 45.4231 51.5937 45.4231H56.3466C56.7346 45.4231 56.9286 45.7142 56.9286 46.0053V50.7601C56.9286 51.0512 56.7346 51.3423 56.3466 51.3423ZM52.1757 50.0808H55.6676V46.5875H52.1757V50.0808Z" fill="white"/>
</g>
<defs>
<linearGradient id="paint0_linear_1595_3221" x1="40" y1="0" x2="40" y2="80" gradientUnits="userSpaceOnUse">
<stop stop-color="#F46E7E"/>
<stop offset="1" stop-color="#5D68CD"/>
</linearGradient>
<clipPath id="clip0_1595_3221">
<rect width="42" height="36.0975" fill="white" transform="translate(19 20.5818)"/>
</clipPath>
</defs>
</svg>
