<svg width="84" height="84" viewBox="0 0 84 84" fill="none" xmlns="http://www.w3.org/2000/svg">
<path d="M61.6063 41.7859C61.229 37.9928 59.535 34.417 56.8345 31.7166C54.527 29.409 51.7027 27.9267 48.7315 27.2672V25.1828C49.9456 24.8809 50.8471 23.7825 50.8471 22.4766C50.8471 20.9385 49.5961 19.6875 48.058 19.6875H42.1518C40.6137 19.6875 39.3627 20.9385 39.3627 22.4766C39.3627 23.7825 40.265 24.8809 41.4783 25.1828V27.2729C38.5153 27.9349 35.7008 29.4156 33.3998 31.7166C32.8962 32.2202 32.4319 32.7485 32.007 33.2973C31.9865 33.2957 31.9659 33.294 31.9446 33.294H26.0999C25.6471 33.294 25.2796 33.6615 25.2796 34.1143C25.2796 34.5672 25.6471 34.9347 26.0999 34.9347H30.8913C30.29 35.942 29.8052 36.9994 29.4361 38.0879H20.5078C20.055 38.0879 19.6875 38.4554 19.6875 38.9083C19.6875 39.3611 20.055 39.7286 20.5078 39.7286H28.9726C28.7364 40.7663 28.6002 41.8228 28.5657 42.8818H24.9375C24.4847 42.8818 24.1172 43.2493 24.1172 43.7022C24.1172 44.155 24.4847 44.5225 24.9375 44.5225H28.5912C28.6601 45.584 28.8315 46.6405 29.1031 47.6758H23.7891C23.3363 47.6758 22.9688 48.0433 22.9688 48.4961C22.9688 48.9489 23.3363 49.3164 23.7891 49.3164H29.6272C30.432 51.4451 31.6895 53.4401 33.4007 55.1513C36.1036 57.8542 39.6826 59.549 43.4799 59.9238C44.0221 59.9772 44.5643 60.0042 45.1057 60.0042C48.3066 60.0042 51.4672 59.0781 54.1488 57.3317C54.5286 57.0847 54.6361 56.5761 54.3884 56.1963C54.1415 55.8165 53.6329 55.7091 53.2531 55.9568C47.3829 59.7795 39.5218 58.9526 34.5606 53.9913C28.7397 48.1704 28.7397 38.6982 34.5606 32.8773C40.3815 27.0564 49.8537 27.0564 55.6746 32.8773C60.6293 37.832 61.4603 45.6865 57.6508 51.5542C57.4038 51.934 57.5121 52.4426 57.8919 52.6887C58.2717 52.9356 58.7803 52.8273 59.0264 52.4475C61.0616 49.3123 61.9787 45.5257 61.6063 41.7859ZM41.0033 22.4766C41.0033 21.8433 41.5185 21.3281 42.1518 21.3281H48.058C48.6913 21.3281 49.2065 21.8433 49.2065 22.4766C49.2065 23.1098 48.6913 23.625 48.058 23.625H47.9112H42.2994H42.1526C41.5185 23.625 41.0033 23.1098 41.0033 22.4766ZM43.1197 26.9916V25.2656H47.0909V26.9883C45.7718 26.8316 44.438 26.8324 43.1197 26.9916Z" fill="#E8E8E9"/>
<path d="M20.5078 47.6749C20.2921 47.6749 20.0804 47.7627 19.9279 47.9153C19.7753 48.0679 19.6875 48.2795 19.6875 48.4952C19.6875 48.7118 19.7753 48.9226 19.9279 49.0752C20.0804 49.2278 20.2921 49.3156 20.5078 49.3156C20.7236 49.3156 20.9352 49.2278 21.0878 49.0752C21.2404 48.9226 21.3281 48.711 21.3281 48.4952C21.3281 48.2795 21.2404 48.0679 21.0878 47.9153C20.9352 47.7627 20.7236 47.6749 20.5078 47.6749Z" fill="#E8E8E9"/>
<path d="M56.2559 53.7502C56.0393 53.7502 55.8285 53.838 55.6759 53.9905C55.5225 54.1431 55.4355 54.3548 55.4355 54.5705C55.4355 54.7862 55.5225 54.9979 55.6759 55.1505C55.8285 55.3039 56.0393 55.3908 56.2559 55.3908C56.4716 55.3908 56.6824 55.3039 56.8358 55.1505C56.9884 54.9979 57.0762 54.7862 57.0762 54.5705C57.0762 54.3548 56.9884 54.1431 56.8358 53.9905C56.6824 53.838 56.4716 53.7502 56.2559 53.7502Z" fill="#E8E8E9"/>
<path d="M45.1181 30.7084C38.1011 30.7084 32.3926 36.4169 32.3926 43.4339C32.3926 50.4508 38.1011 56.1594 45.1181 56.1594C52.135 56.1594 57.8436 50.4508 57.8436 43.4339C57.8436 36.4169 52.135 30.7084 45.1181 30.7084ZM45.1181 54.5188C39.0059 54.5188 34.0332 49.546 34.0332 43.4339C34.0332 37.3217 39.0059 32.349 45.1181 32.349C51.2302 32.349 56.203 37.3217 56.203 43.4339C56.203 49.546 51.2302 54.5188 45.1181 54.5188Z" fill="#E8E8E9"/>
<path d="M50.3062 37.0847L46.2432 41.1477C45.9036 40.9795 45.5213 40.8844 45.1169 40.8844C44.7125 40.8844 44.331 40.9795 43.9906 41.1477L42.172 39.329C41.8512 39.0083 41.332 39.0083 41.012 39.329C40.6913 39.6498 40.6913 40.169 41.012 40.489L42.8307 42.3076C42.6625 42.6472 42.5674 43.0295 42.5674 43.4339C42.5674 44.8391 43.7109 45.9826 45.1161 45.9826C46.5221 45.9826 47.6648 44.8391 47.6648 43.4339C47.6648 43.0295 47.5696 42.648 47.4015 42.3076L51.3455 38.3635L51.4645 38.2446C51.7852 37.9238 51.7852 37.4046 51.4645 37.0847C51.1437 36.7647 50.6269 36.7647 50.3062 37.0847ZM45.1177 44.342C44.6165 44.342 44.2096 43.9343 44.2096 43.4339C44.2096 42.9335 44.6173 42.5258 45.1177 42.5258C45.6181 42.5258 46.0258 42.9335 46.0258 43.4339C46.0258 43.9343 45.6181 44.342 45.1177 44.342Z" fill="#E8E8E9"/>
<path d="M53.8893 42.6235H53.1289C52.6761 42.6235 52.3086 42.991 52.3086 43.4438C52.3086 43.8966 52.6761 44.2641 53.1289 44.2641H53.8893C54.3421 44.2641 54.7096 43.8966 54.7096 43.4438C54.7096 42.991 54.3421 42.6235 53.8893 42.6235Z" fill="#E8E8E9"/>
<path d="M37.1073 42.6038H36.3477C35.8948 42.6038 35.5273 42.9713 35.5273 43.4241C35.5273 43.8769 35.8948 44.2444 36.3477 44.2444H37.1073C37.5601 44.2444 37.9276 43.8769 37.9276 43.4241C37.9276 42.9713 37.5601 42.6038 37.1073 42.6038Z" fill="#E8E8E9"/>
<path d="M45.127 36.2431C45.5798 36.2431 45.9473 35.8756 45.9473 35.4228V34.6631C45.9473 34.2103 45.5798 33.8428 45.127 33.8428C44.6741 33.8428 44.3066 34.2103 44.3066 34.6631V35.4228C44.3066 35.8764 44.6741 36.2431 45.127 36.2431Z" fill="#E8E8E9"/>
<path d="M45.1074 50.6248C44.6546 50.6248 44.2871 50.9923 44.2871 51.4451V52.2047C44.2871 52.6575 44.6546 53.025 45.1074 53.025C45.5602 53.025 45.9277 52.6575 45.9277 52.2047V51.4451C45.9277 50.9914 45.5611 50.6248 45.1074 50.6248Z" fill="#E8E8E9"/>
<path d="M82.5 42C82.5 50.0101 80.1247 57.8404 75.6745 64.5006C71.2243 71.1608 64.8991 76.3518 57.4987 79.4171C50.0983 82.4825 41.9551 83.2845 34.0988 81.7218C26.2426 80.1591 19.0262 76.3019 13.3622 70.6378C7.69815 64.9738 3.8409 57.7574 2.27819 49.9012C0.715493 42.0449 1.51753 33.9017 4.58288 26.5013C7.64823 19.1009 12.8392 12.7757 19.4994 8.32549C26.1596 3.87529 33.9899 1.50001 42 1.50001" stroke="white" stroke-width="3"/>
</svg>
