<svg width="84" height="84" viewBox="0 0 84 84" fill="none" xmlns="http://www.w3.org/2000/svg">
<path d="M82.5 42C82.5 50.0101 80.1247 57.8404 75.6745 64.5006C71.2243 71.1608 64.8991 76.3518 57.4987 79.4171C50.0983 82.4825 41.9551 83.2845 34.0988 81.7218C26.2426 80.1591 19.0262 76.3019 13.3622 70.6378C7.69815 64.9738 3.8409 57.7574 2.27819 49.9012C0.715493 42.0449 1.51753 33.9017 4.58288 26.5013C7.64823 19.1009 12.8392 12.7757 19.4994 8.32549C26.1596 3.87529 33.9899 1.50001 42 1.50001" stroke="white" stroke-width="3"/>
<path d="M43.2032 30.4451C42.8076 30.4042 42.4064 30.3833 41.9995 30.3833C35.5941 30.3833 30.3828 35.5938 30.3828 42C30.3828 48.4054 35.5933 53.6159 41.9995 53.6159C42.4064 53.6159 42.8076 53.595 43.2032 53.5541C49.0453 52.9498 53.617 47.9993 53.617 42C53.617 36.0007 49.0453 31.0494 43.2032 30.4451ZM43.2032 51.1306V32.8694C47.7148 33.4608 51.2096 37.3296 51.2096 42C51.2096 46.6704 47.7148 50.5392 43.2032 51.1306Z" fill="white"/>
<path d="M42.0006 28.6419C42.665 28.6419 43.2043 28.1027 43.2043 27.4382V22.6603C43.2043 21.995 42.665 21.4565 42.0006 21.4565C41.3353 21.4565 40.7969 21.995 40.7969 22.6603V27.4382C40.7969 28.1027 41.3353 28.6419 42.0006 28.6419Z" fill="white"/>
<path d="M42.0006 55.3581C41.3353 55.3581 40.7969 55.8974 40.7969 56.5618V61.3398C40.7969 62.005 41.3353 62.5435 42.0006 62.5435C42.665 62.5435 43.2043 62.005 43.2043 61.3398V56.5618C43.2043 55.8966 42.6658 55.3581 42.0006 55.3581Z" fill="white"/>
<path d="M28.6424 42C28.6424 41.3347 28.1032 40.7963 27.4387 40.7963H22.6608C21.9955 40.7963 21.457 41.3347 21.457 42C21.457 42.6644 21.9955 43.2037 22.6608 43.2037H27.4387C28.1032 43.2037 28.6424 42.6652 28.6424 42Z" fill="white"/>
<path d="M61.3391 40.7963H56.5611C55.8959 40.7963 55.3574 41.3347 55.3574 42C55.3574 42.6644 55.8959 43.2037 56.5611 43.2037H61.3391C62.0044 43.2037 62.5428 42.6644 62.5428 42C62.5428 41.3347 62.0044 40.7963 61.3391 40.7963Z" fill="white"/>
<path d="M30.5622 32.2659C30.7973 32.5011 31.1054 32.6182 31.4136 32.6182C31.7217 32.6182 32.0299 32.5011 32.265 32.2659C32.7353 31.7957 32.7353 31.0333 32.265 30.5639L28.7911 27.0899C28.3208 26.6197 27.5585 26.6197 27.089 27.0899C26.6188 27.5602 26.6188 28.3217 27.089 28.792L30.5622 32.2659Z" fill="white"/>
<path d="M53.4376 51.7341C52.9673 51.2638 52.2058 51.2638 51.7355 51.7341C51.2652 52.2044 51.2652 52.9659 51.7355 53.4362L55.2094 56.9101C55.4446 57.1452 55.7527 57.2624 56.0609 57.2624C56.369 57.2624 56.6772 57.1452 56.9123 56.9101C57.3826 56.4398 57.3826 55.6775 56.9123 55.208L53.4376 51.7341Z" fill="white"/>
<path d="M30.5621 51.7341L27.089 55.208C26.6188 55.6783 26.6188 56.4398 27.089 56.9101C27.3241 57.1452 27.6323 57.2624 27.9404 57.2624C28.2486 57.2624 28.5568 57.1452 28.7919 56.9101L32.2658 53.4362C32.7361 52.9659 32.7361 52.2036 32.2658 51.7341C31.7948 51.2647 31.0324 51.2647 30.5621 51.7341Z" fill="white"/>
<path d="M52.5861 32.6182C52.8943 32.6182 53.2024 32.5011 53.4376 32.2659L56.9115 28.792C57.3817 28.3217 57.3817 27.5594 56.9115 27.0899C56.4412 26.6197 55.6789 26.6197 55.2094 27.0899L51.7355 30.5639C51.2652 31.0341 51.2652 31.7957 51.7355 32.2659C51.9698 32.5003 52.278 32.6182 52.5861 32.6182Z" fill="white"/>
</svg>
