<svg width="46" height="46" viewBox="0 0 46 46" fill="none" xmlns="http://www.w3.org/2000/svg">
<path d="M39.575 5H36.9344C36.5008 5 36.15 5.34828 36.15 5.77706V10.232H6.425C4.53672 10.232 3 11.7543 3 13.625V36.9011C3 38.7717 4.53672 40.2941 6.425 40.2941H36.9344H39.575C40.4891 40.2941 41.3492 39.9412 41.9969 39.3004C42.6437 38.6595 43 37.8074 43 36.9011V8.39304C43 6.52238 41.4633 5 39.575 5ZM40.8883 38.2013C40.5367 38.5488 40.0703 38.74 39.575 38.74H36.9344H6.425C5.40156 38.74 4.56875 37.915 4.56875 36.9011V13.625C4.56875 12.6111 5.40156 11.7869 6.425 11.7869H36.15V13.9919H9.97734C9.54453 13.9919 9.19297 14.3401 9.19297 14.7689V35.7587C9.19297 36.1875 9.54453 36.5358 9.97734 36.5358H36.9344C37.368 36.5358 37.7188 36.1875 37.7188 35.7587V35.0575L39.575 35.0621C40.5984 35.0621 41.4313 35.8872 41.4313 36.9011C41.4313 37.3925 41.2383 37.8546 40.8883 38.2013ZM36.15 15.5452V34.9809H10.7617V15.5452H36.15ZM41.4313 34.0514C40.8961 33.7085 40.2602 33.508 39.5766 33.508L37.718 33.5034V14.7681V6.55411H39.5742C40.5977 6.55411 41.4305 7.37915 41.4305 8.39304V34.0514H41.4313Z" fill="#E8E8E9"/>
<path d="M6.92158 23.0393C6.4888 23.0393 6.13727 23.3894 6.13727 23.8205V26.1797C6.13727 26.6107 6.48802 26.9609 6.92158 26.9609C7.35514 26.9609 7.7059 26.6107 7.7059 26.1797V23.8205C7.7059 23.3887 7.35514 23.0393 6.92158 23.0393Z" fill="#E8E8E9"/>
<path d="M16.4074 17.5491H13.9064C13.5145 17.5491 13.1961 17.8674 13.1961 18.2593V20.7605C13.1961 21.1523 13.5138 21.4706 13.9064 21.4706H16.4074C16.7993 21.4706 17.1177 21.1523 17.1177 20.7605V18.2593C17.1177 17.8674 16.8 17.5491 16.4074 17.5491ZM15.6971 20.0503H14.6167V18.9694H15.6971V20.0503Z" fill="#E8E8E9"/>
<path d="M22.5399 17.5491H19.5385C19.0682 17.5491 18.6863 17.8674 18.6863 18.2593V20.7605C18.6863 21.1523 19.0674 21.4706 19.5385 21.4706H22.5399C23.0102 21.4706 23.3922 21.1523 23.3922 20.7605V18.2593C23.3922 17.8674 23.0102 17.5491 22.5399 17.5491ZM21.6877 20.0503H20.3907V18.9694H21.6877V20.0503Z" fill="#E8E8E9"/>
<path d="M28.1721 17.5491H25.6711C25.2785 17.5491 24.9608 17.8674 24.9608 18.2593V20.7605C24.9608 21.1523 25.2785 21.4706 25.6711 21.4706H28.1721C28.5647 21.4706 28.8824 21.1523 28.8824 20.7605V18.2593C28.8824 17.8674 28.5647 17.5491 28.1721 17.5491ZM27.4618 20.0503H26.3814V18.9694H27.4618V20.0503Z" fill="#E8E8E9"/>
<path d="M34.3047 17.5491H31.3032C30.8321 17.5491 30.451 17.8674 30.451 18.2593V20.7605C30.451 21.1523 30.8321 21.4706 31.3032 21.4706H34.3047C34.7757 21.4706 35.1569 21.1523 35.1569 20.7605V18.2593C35.1569 17.8674 34.7749 17.5491 34.3047 17.5491ZM33.4524 20.0503H32.1554V18.9694H33.4524V20.0503Z" fill="#E8E8E9"/>
<path d="M16.4074 23.0393H13.9064C13.5145 23.0393 13.1961 23.4213 13.1961 23.8915V26.893C13.1961 27.3632 13.5138 27.7452 13.9064 27.7452H16.4074C16.7993 27.7452 17.1177 27.3632 17.1177 26.893V23.8915C17.1177 23.4204 16.8 23.0393 16.4074 23.0393ZM15.6971 26.0399H14.6167V24.7429H15.6971V26.0399Z" fill="#E8E8E9"/>
<path d="M22.5399 23.0393H19.5385C19.0682 23.0393 18.6863 23.4213 18.6863 23.8915V26.893C18.6863 27.3632 19.0674 27.7452 19.5385 27.7452H22.5399C23.0102 27.7452 23.3922 27.3632 23.3922 26.893V23.8915C23.3922 23.4204 23.0102 23.0393 22.5399 23.0393ZM21.6877 26.0399H20.3907V24.7429H21.6877V26.0399Z" fill="#E8E8E9"/>
<path d="M28.1721 23.0393H25.6711C25.2785 23.0393 24.9608 23.4213 24.9608 23.8915V26.893C24.9608 27.3632 25.2785 27.7452 25.6711 27.7452H28.1721C28.5647 27.7452 28.8824 27.3632 28.8824 26.893V23.8915C28.8824 23.4204 28.5647 23.0393 28.1721 23.0393ZM27.4618 26.0399H26.3814V24.7429H27.4618V26.0399Z" fill="#E8E8E9"/>
<path d="M34.3047 23.0393H31.3032C30.8321 23.0393 30.451 23.4213 30.451 23.8915V26.893C30.451 27.3632 30.8321 27.7452 31.3032 27.7452H34.3047C34.7757 27.7452 35.1569 27.3632 35.1569 26.893V23.8915C35.1569 23.4204 34.7749 23.0393 34.3047 23.0393ZM33.4524 26.0399H32.1554V24.7429H33.4524V26.0399Z" fill="#E8E8E9"/>
<path d="M16.4074 28.5293H13.9064C13.5145 28.5293 13.1961 28.9113 13.1961 29.3817V32.3828C13.1961 32.854 13.5138 33.2352 13.9064 33.2352H16.4074C16.7993 33.2352 17.1177 32.8531 17.1177 32.3828V29.3817C17.1177 28.9105 16.8 28.5293 16.4074 28.5293ZM15.6971 31.5296H14.6167V30.2332H15.6971V31.5296Z" fill="#E8E8E9"/>
<path d="M22.5399 28.5293H19.5385C19.0682 28.5293 18.6863 28.9113 18.6863 29.3817V32.3828C18.6863 32.854 19.0674 33.2352 19.5385 33.2352H22.5399C23.0102 33.2352 23.3922 32.8531 23.3922 32.3828V29.3817C23.3922 28.9105 23.0102 28.5293 22.5399 28.5293ZM21.6877 31.5296H20.3907V30.2332H21.6877V31.5296Z" fill="#E8E8E9"/>
<path d="M28.1721 28.5293H25.6711C25.2785 28.5293 24.9608 28.9113 24.9608 29.3817V32.3828C24.9608 32.854 25.2785 33.2352 25.6711 33.2352H28.1721C28.5647 33.2352 28.8824 32.8531 28.8824 32.3828V29.3817C28.8824 28.9105 28.5647 28.5293 28.1721 28.5293ZM27.4618 31.5296H26.3814V30.2332H27.4618V31.5296Z" fill="#E8E8E9"/>
<path d="M34.3047 28.5293H31.3032C30.8321 28.5293 30.451 28.9113 30.451 29.3817V32.3828C30.451 32.854 30.8321 33.2352 31.3032 33.2352H34.3047C34.7757 33.2352 35.1569 32.8531 35.1569 32.3828V29.3817C35.1569 28.9105 34.7749 28.5293 34.3047 28.5293ZM33.4524 31.5296H32.1554V30.2332H33.4524V31.5296Z" fill="#E8E8E9"/>
<path d="M39.8627 10.4902C38.8178 10.4902 38.8162 12.0589 39.8627 12.0589C40.9077 12.0581 40.9093 10.4902 39.8627 10.4902Z" fill="#E8E8E9"/>
<path d="M39.8627 13.6274C38.8178 13.6274 38.8162 15.1961 39.8627 15.1961C40.9077 15.1961 40.9093 13.6274 39.8627 13.6274Z" fill="#E8E8E9"/>
<path d="M39.8627 17.5491C38.8178 17.5491 38.8162 19.1177 39.8627 19.1177C40.9077 19.1177 40.9093 17.5491 39.8627 17.5491Z" fill="#E8E8E9"/>
<path d="M6.92158 27.7451C5.87664 27.7451 5.87502 29.3137 6.92158 29.3137C7.96652 29.3137 7.96814 27.7451 6.92158 27.7451Z" fill="#E8E8E9"/>
</svg>
