<svg width="918" height="484" viewBox="0 0 918 484" fill="none" xmlns="http://www.w3.org/2000/svg">
<line y1="63.2573" x2="220" y2="63.2573" stroke="#C8B24C"/>
<line x1="535" y1="161.257" x2="871" y2="161.257" stroke="#24C2AF"/>
<line x1="55" y1="393.257" x2="461" y2="393.257" stroke="#6EA6E4"/>
<path d="M508 484H718" stroke="#CC4063"/>
<rect x="36.5858" width="6.48528" height="6.48528" transform="rotate(45 36.5858 0)" fill="#24C2AF"/>
<rect x="274.586" y="446.757" width="6.48528" height="6.48528" transform="rotate(45 274.586 446.757)" fill="#CC4063"/>
<rect x="907.586" y="156.757" width="6.48528" height="6.48528" transform="rotate(45 907.586 156.757)" fill="#6EA6E4"/>
<rect x="87.5858" y="302.757" width="6.48528" height="6.48528" transform="rotate(45 87.5858 302.757)" fill="#6EA6E4"/>
<rect opacity="0.5" x="87.5858" y="263.05" width="62.6396" height="62.6396" transform="rotate(45 87.5858 263.05)" stroke="white"/>
<circle cx="783" cy="392.757" r="16.5" stroke="white"/>
<rect x="782.828" y="389.757" width="3.99996" height="3.99996" transform="rotate(45 782.828 389.757)" fill="#C8B24C"/>
<g opacity="0.5">
<rect x="129.5" y="80.2573" width="33" height="33" stroke="white"/>
<rect x="137.5" y="89.2573" width="1" height="1" fill="white" stroke="white"/>
<rect x="137.5" y="96.2573" width="1" height="1" fill="white" stroke="white"/>
<rect x="137.5" y="104.257" width="1" height="1" fill="white" stroke="white"/>
<rect x="145.5" y="89.2573" width="1" height="1" fill="white" stroke="white"/>
<rect x="145.5" y="96.2573" width="1" height="1" fill="white" stroke="white"/>
<rect x="145.5" y="104.257" width="1" height="1" fill="white" stroke="white"/>
<rect x="153.5" y="89.2573" width="1" height="1" fill="white" stroke="white"/>
<rect x="153.5" y="96.2573" width="1" height="1" fill="white" stroke="white"/>
<rect x="153.5" y="104.257" width="1" height="1" fill="white" stroke="white"/>
</g>
<g opacity="0.5">
<rect x="885.479" y="419.464" width="44.9325" height="44.9325" transform="rotate(45 885.479 419.464)" stroke="white"/>
<rect x="884.524" y="435.704" width="1.70191" height="1.70191" transform="rotate(45 884.524 435.704)" fill="white" stroke="white"/>
<rect x="877.837" y="442.391" width="1.70191" height="1.70191" transform="rotate(45 877.837 442.391)" fill="white" stroke="white"/>
<rect x="870.195" y="450.033" width="1.70191" height="1.70191" transform="rotate(45 870.195 450.033)" fill="white" stroke="white"/>
<rect x="892.166" y="443.346" width="1.70191" height="1.70191" transform="rotate(45 892.166 443.346)" fill="white" stroke="white"/>
<rect x="885.479" y="450.033" width="1.70191" height="1.70191" transform="rotate(45 885.479 450.033)" fill="white" stroke="white"/>
<rect x="877.837" y="457.675" width="1.70191" height="1.70191" transform="rotate(45 877.837 457.675)" fill="white" stroke="white"/>
<rect x="899.808" y="450.988" width="1.70191" height="1.70191" transform="rotate(45 899.808 450.988)" fill="white" stroke="white"/>
<rect x="893.121" y="457.675" width="1.70191" height="1.70191" transform="rotate(45 893.121 457.675)" fill="white" stroke="white"/>
<rect x="885.479" y="465.317" width="1.70191" height="1.70191" transform="rotate(45 885.479 465.317)" fill="white" stroke="white"/>
</g>
</svg>
