<svg width="46" height="46" viewBox="0 0 46 46" fill="none" xmlns="http://www.w3.org/2000/svg">
<path d="M41 10.625V5H35.375V7.8125H10.625V5H5V10.625H7.8125V35.375H5V41H10.625V38.1875H35.375V41H41V35.375H38.1875V10.625H41ZM35.375 26.2344H29.0469V19.7656H35.375V26.2344ZM26.2344 26.2344H19.7656V19.7656H26.2344V26.2344ZM26.2344 29.0469V35.375H19.7656V29.0469H26.2344ZM10.625 19.7656H16.9531V26.2344H10.625V19.7656ZM19.7656 16.9531V10.625H26.2344V16.9531H19.7656ZM16.9531 10.625V16.9531H10.625V10.625H16.9531ZM10.625 29.0469H16.9531V35.375H10.625V29.0469ZM29.0469 35.375V29.0469H35.375V35.375H29.0469ZM35.375 16.9531H29.0469V10.625H35.375V16.9531Z" fill="#E8E8E9"/>
</svg>
