<svg width="46" height="46" viewBox="0 0 46 46" fill="none" xmlns="http://www.w3.org/2000/svg">
<path d="M45.9111 24.203C45.4978 20.0486 43.6425 16.1324 40.6849 13.1747C38.1576 10.6474 35.0642 9.02391 31.8101 8.30157V6.01864C33.1398 5.68801 34.1272 4.485 34.1272 3.05469C34.1272 1.37012 32.757 0 31.0725 0H24.6037C22.9192 0 21.549 1.37012 21.549 3.05469C21.549 4.485 22.5373 5.68801 23.8661 6.01864V8.30785C20.6209 9.03289 17.5384 10.6546 15.0183 13.1747C14.4666 13.7263 13.9581 14.3049 13.4927 14.906C13.4703 14.9042 13.4478 14.9024 13.4245 14.9024H7.02309C6.52715 14.9024 6.12465 15.3049 6.12465 15.8008C6.12465 16.2968 6.52715 16.6993 7.02309 16.6993H12.2709C11.6123 17.8025 11.0813 18.9606 10.677 20.1529H0.898438C0.4025 20.1529 0 20.5554 0 21.0513C0 21.5472 0.4025 21.9497 0.898438 21.9497H10.1694C9.91067 23.0863 9.76153 24.2434 9.72379 25.4033H5.75C5.25406 25.4033 4.85156 25.8058 4.85156 26.3018C4.85156 26.7977 5.25406 27.2002 5.75 27.2002H9.75165C9.82711 28.3628 10.0149 29.52 10.3123 30.6538H4.49219C3.99625 30.6538 3.59375 31.0563 3.59375 31.5522C3.59375 32.0482 3.99625 32.4507 4.49219 32.4507H10.8864C11.7677 34.7821 13.145 36.9671 15.0192 38.8413C17.9795 41.8016 21.8994 43.6578 26.0583 44.0684C26.6522 44.1268 27.246 44.1564 27.839 44.1564C31.3447 44.1564 34.8064 43.1421 37.7434 41.2293C38.1594 40.9589 38.277 40.4019 38.0057 39.9859C37.7353 39.5699 37.1783 39.4522 36.7623 39.7235C30.3331 43.9103 21.7233 43.0046 16.2896 37.5709C9.91426 31.1956 9.91426 20.8213 16.2896 14.446C22.6649 8.07067 33.0392 8.07067 39.4145 14.446C44.841 19.8725 45.7512 28.4751 41.5788 34.9016C41.3084 35.3176 41.427 35.8746 41.8429 36.1442C42.2589 36.4146 42.816 36.296 43.0855 35.88C45.3145 32.4462 46.319 28.299 45.9111 24.203ZM23.3459 3.05469C23.3459 2.36109 23.9101 1.79688 24.6037 1.79688H31.0725C31.7661 1.79688 32.3303 2.36109 32.3303 3.05469C32.3303 3.74828 31.7661 4.3125 31.0725 4.3125H30.9117H24.7654H24.6046C23.9101 4.3125 23.3459 3.74828 23.3459 3.05469ZM25.6639 7.99969V6.10938H30.0132V7.9961C28.5685 7.8245 27.1077 7.82539 25.6639 7.99969Z" fill="#E8E8E9"/>
<path d="M0.898438 30.6528C0.662149 30.6528 0.430352 30.749 0.263242 30.9161C0.0961329 31.0832 0 31.315 0 31.5513C0 31.7885 0.0961329 32.0194 0.263242 32.1865C0.430352 32.3536 0.662149 32.4497 0.898438 32.4497C1.13473 32.4497 1.36652 32.3536 1.53363 32.1865C1.70074 32.0194 1.79688 31.7876 1.79688 31.5513C1.79688 31.315 1.70074 31.0832 1.53363 30.9161C1.36652 30.749 1.13473 30.6528 0.898438 30.6528Z" fill="#E8E8E9"/>
<path d="M40.0505 37.3066C39.8133 37.3066 39.5825 37.4028 39.4153 37.5699C39.2473 37.737 39.1521 37.9688 39.1521 38.2051C39.1521 38.4414 39.2473 38.6732 39.4153 38.8403C39.5825 39.0083 39.8133 39.1035 40.0505 39.1035C40.2868 39.1035 40.5177 39.0083 40.6857 38.8403C40.8528 38.6732 40.949 38.4414 40.949 38.2051C40.949 37.9688 40.8528 37.737 40.6857 37.5699C40.5177 37.4028 40.2868 37.3066 40.0505 37.3066Z" fill="#E8E8E9"/>
<path d="M27.8525 12.0706C20.1673 12.0706 13.915 18.3228 13.915 26.008C13.915 33.6933 20.1673 39.9455 27.8525 39.9455C35.5377 39.9455 41.79 33.6933 41.79 26.008C41.79 18.3228 35.5377 12.0706 27.8525 12.0706ZM27.8525 38.1486C21.1582 38.1486 15.7119 32.7023 15.7119 26.008C15.7119 19.3138 21.1582 13.8674 27.8525 13.8674C34.5468 13.8674 39.9931 19.3138 39.9931 26.008C39.9931 32.7023 34.5468 38.1486 27.8525 38.1486Z" fill="#E8E8E9"/>
<path d="M33.5351 19.0541L29.0851 23.504C28.7131 23.3198 28.2945 23.2156 27.8515 23.2156C27.4086 23.2156 26.9908 23.3198 26.618 23.504L24.6261 21.5122C24.2749 21.1609 23.7061 21.1609 23.3558 21.5122C23.0045 21.8635 23.0045 22.4322 23.3558 22.7826L25.3476 24.7744C25.1634 25.1464 25.0592 25.565 25.0592 26.008C25.0592 27.547 26.3116 28.7994 27.8506 28.7994C29.3906 28.7994 30.6421 27.547 30.6421 26.008C30.6421 25.565 30.5379 25.1473 30.3537 24.7744L34.6734 20.4547L34.8036 20.3244C35.1549 19.9732 35.1549 19.4044 34.8036 19.0541C34.4524 18.7037 33.8863 18.7037 33.5351 19.0541ZM27.8524 27.0025C27.3035 27.0025 26.8579 26.556 26.8579 26.008C26.8579 25.4599 27.3044 25.0134 27.8524 25.0134C28.4005 25.0134 28.847 25.4599 28.847 26.008C28.847 26.556 28.4005 27.0025 27.8524 27.0025Z" fill="#E8E8E9"/>
<path d="M37.4586 25.1204H36.6257C36.1298 25.1204 35.7273 25.5229 35.7273 26.0188C35.7273 26.5147 36.1298 26.9172 36.6257 26.9172H37.4586C37.9545 26.9172 38.357 26.5147 38.357 26.0188C38.357 25.5229 37.9545 25.1204 37.4586 25.1204Z" fill="#E8E8E9"/>
<path d="M19.0783 25.0986H18.2463C17.7504 25.0986 17.3479 25.5011 17.3479 25.9971C17.3479 26.493 17.7504 26.8955 18.2463 26.8955H19.0783C19.5742 26.8955 19.9767 26.493 19.9767 25.9971C19.9767 25.5011 19.5742 25.0986 19.0783 25.0986Z" fill="#E8E8E9"/>
<path d="M27.8633 18.1322C28.3592 18.1322 28.7617 17.7297 28.7617 17.2338V16.4019C28.7617 15.9059 28.3592 15.5034 27.8633 15.5034C27.3673 15.5034 26.9648 15.9059 26.9648 16.4019V17.2338C26.9648 17.7306 27.3673 18.1322 27.8633 18.1322Z" fill="#E8E8E9"/>
<path d="M27.8408 33.8838C27.3449 33.8838 26.9424 34.2863 26.9424 34.7822V35.6142C26.9424 36.1101 27.3449 36.5126 27.8408 36.5126C28.3368 36.5126 28.7393 36.1101 28.7393 35.6142V34.7822C28.7393 34.2854 28.3377 33.8838 27.8408 33.8838Z" fill="#E8E8E9"/>
</svg>
