<svg width="46" height="46" viewBox="0 0 46 46" fill="none" xmlns="http://www.w3.org/2000/svg">
<path d="M24.1719 11.7508C23.7867 11.711 23.3961 11.6907 23 11.6907C16.7641 11.6907 11.6906 16.7633 11.6906 23C11.6906 29.236 16.7633 34.3086 23 34.3086C23.3961 34.3086 23.7867 34.2883 24.1719 34.2485C29.8594 33.6602 34.3101 28.8407 34.3101 23C34.3101 17.1594 29.8594 12.3391 24.1719 11.7508ZM24.1719 31.8891V14.111C28.5641 14.6868 31.9664 18.4532 31.9664 23C31.9664 27.5469 28.5641 31.3133 24.1719 31.8891Z" fill="#E8E8E9"/>
<path d="M23 9.99531C23.6469 9.99531 24.1719 9.47031 24.1719 8.82344V4.17188C24.1719 3.52422 23.6469 3 23 3C22.3523 3 21.8281 3.52422 21.8281 4.17188V8.82344C21.8281 9.47031 22.3523 9.99531 23 9.99531Z" fill="#E8E8E9"/>
<path d="M23 36.0046C22.3523 36.0046 21.8281 36.5296 21.8281 37.1765V41.8281C21.8281 42.4757 22.3523 43 23 43C23.6469 43 24.1719 42.4757 24.1719 41.8281V37.1765C24.1719 36.5289 23.6477 36.0046 23 36.0046Z" fill="#E8E8E9"/>
<path d="M9.99531 23C9.99531 22.3523 9.47031 21.8281 8.82344 21.8281H4.17188C3.52422 21.8281 3 22.3523 3 23C3 23.6469 3.52422 24.1719 4.17188 24.1719H8.82344C9.47031 24.1719 9.99531 23.6477 9.99531 23Z" fill="#E8E8E9"/>
<path d="M41.8281 21.8281H37.1766C36.5289 21.8281 36.0047 22.3523 36.0047 23C36.0047 23.6469 36.5289 24.1719 37.1766 24.1719H41.8281C42.4758 24.1719 43 23.6469 43 23C43 22.3523 42.4758 21.8281 41.8281 21.8281Z" fill="#E8E8E9"/>
<path d="M11.8656 13.5235C12.0945 13.7524 12.3945 13.8665 12.6945 13.8665C12.9945 13.8665 13.2945 13.7524 13.5234 13.5235C13.9812 13.0657 13.9812 12.3235 13.5234 11.8665L10.1414 8.48447C9.68357 8.02666 8.94138 8.02666 8.48435 8.48447C8.02654 8.94229 8.02654 9.68369 8.48435 10.1415L11.8656 13.5235Z" fill="#E8E8E9"/>
<path d="M34.1344 32.4767C33.6765 32.0188 32.9351 32.0188 32.4773 32.4767C32.0195 32.9345 32.0195 33.6759 32.4773 34.1337L35.8594 37.5157C36.0883 37.7446 36.3883 37.8587 36.6883 37.8587C36.9883 37.8587 37.2883 37.7446 37.5172 37.5157C37.975 37.0579 37.975 36.3157 37.5172 35.8587L34.1344 32.4767Z" fill="#E8E8E9"/>
<path d="M11.8656 32.4766L8.48435 35.8586C8.02654 36.3164 8.02654 37.0578 8.48435 37.5156C8.71326 37.7445 9.01326 37.8586 9.31326 37.8586C9.61326 37.8586 9.91326 37.7445 10.1422 37.5156L13.5242 34.1336C13.982 33.6758 13.982 32.9336 13.5242 32.4766C13.0656 32.0195 12.3234 32.0195 11.8656 32.4766Z" fill="#E8E8E9"/>
<path d="M33.3055 13.8665C33.6055 13.8665 33.9055 13.7524 34.1344 13.5235L37.5164 10.1415C37.9742 9.68369 37.9742 8.9415 37.5164 8.48447C37.0586 8.02666 36.3164 8.02666 35.8594 8.48447L32.4773 11.8665C32.0195 12.3243 32.0195 13.0657 32.4773 13.5235C32.7055 13.7517 33.0055 13.8665 33.3055 13.8665Z" fill="#E8E8E9"/>
</svg>
