<svg width="46" height="46" viewBox="0 0 46 46" fill="none" xmlns="http://www.w3.org/2000/svg">
<path d="M38.6155 26.5692C39.078 24.9793 39.3124 23.3316 39.3124 21.6566C39.3124 11.9392 31.3724 4 21.6558 4C11.9392 4 4 11.94 4 21.6566C4 31.349 11.9205 39.2351 21.6566 39.2351C24.0777 39.2351 26.4708 38.7468 28.6513 37.8178C29.9482 40.6257 32.3576 42.8554 35.4264 43.8781L35.7967 44.0016L36.167 43.8781C40.8523 42.3164 43.9992 37.9429 43.9992 32.9951V27.5161H42.8273C41.2249 27.5153 39.7429 27.0583 38.6155 26.5692ZM27.5934 27.5153V32.9943C27.5934 33.8834 27.6958 34.7545 27.8895 35.5936C25.9567 36.4436 23.8207 36.8897 21.6558 36.8897C13.2127 36.8897 6.34301 30.0552 6.34301 21.655C6.34301 13.2119 13.2119 6.34223 21.6558 6.34223C30.0997 6.34223 36.9686 13.2111 36.9686 21.655C36.9686 22.9308 36.8116 24.1871 36.503 25.4067C36.5006 25.4051 35.7983 24.8856 35.7983 24.8856L35.0998 25.4012C35.0709 25.4223 32.1943 27.5145 28.7661 27.5145L27.5934 27.5153ZM41.6562 32.9943C41.6562 36.7999 39.3179 40.1781 35.7967 41.521C32.2756 40.1773 29.9372 36.7999 29.9372 32.9943V29.7974C32.5638 29.5216 34.7342 28.395 35.7967 27.7466C36.8592 28.395 39.0296 29.5216 41.6562 29.7974V32.9943Z" fill="#E8E8E9"/>
<path d="M35.3029 30.6645C33.8287 31.3497 32.8201 31.5919 32.281 31.7731V32.995C32.281 35.1888 33.3412 37.2545 35.1162 38.5201L35.7959 39.0045L36.4756 38.5201C38.2514 37.2553 39.3108 35.1896 39.3108 32.995V31.7731C38.7905 31.5981 37.7858 31.3606 36.2889 30.6645L35.7951 30.4348L35.3029 30.6645ZM36.9436 33.4685C36.842 34.4224 36.4366 35.3146 35.7967 36.0107C35.1568 35.3146 34.7514 34.4224 34.6498 33.4685C35.0326 33.3294 35.4162 33.1771 35.7967 33.0114C36.1772 33.1763 36.5608 33.3294 36.9436 33.4685Z" fill="#E8E8E9"/>
<path d="M20.4847 8.6875H22.8285V11.0313H20.4847V8.6875Z" fill="#E8E8E9"/>
<path d="M20.4847 32.2029H22.8285V34.5467H20.4847V32.2029Z" fill="#E8E8E9"/>
<path d="M8.68762 20.4846H11.0314V22.8284H8.68762V20.4846Z" fill="#E8E8E9"/>
<path d="M32.281 20.4846H34.6248V22.8284H32.281V20.4846Z" fill="#E8E8E9"/>
<path d="M22.8277 13.3752H20.4839V21.1707L16.1393 25.5145L17.7963 27.1716L22.141 22.827H27.5934V20.4832H22.8277V13.3752Z" fill="#E8E8E9"/>
</svg>
