<svg width="46" height="46" viewBox="0 0 46 46" fill="none" xmlns="http://www.w3.org/2000/svg">
<path d="M27.9997 11.6361C27.3604 11.3921 26.6443 11.7117 26.3996 12.351C26.155 12.9903 26.4752 13.7064 27.1145 13.9505C31.4935 15.6255 34.5221 19.8466 34.5221 24.7168C34.5221 31.0701 29.3533 36.239 23 36.239C16.6467 36.239 11.4779 31.0701 11.4779 24.7168C11.4779 19.8441 14.5077 15.6249 18.8849 13.9511C19.5242 13.7064 19.8438 12.9903 19.5997 12.3516C19.355 11.7123 18.6389 11.3927 18.0003 11.6367C12.666 13.6767 9 18.8127 9 24.7168C9 32.4552 15.2622 38.7168 23 38.7168C30.7384 38.7168 37 32.4546 37 24.7168C37 18.8102 33.3315 13.6754 27.9997 11.6361Z" fill="#E8E8E9"/>
<path d="M23 7C22.3155 7 21.761 7.55442 21.761 8.23894V20.3712C21.761 21.0558 22.3155 21.6102 23 21.6102C23.6845 21.6102 24.2389 21.0551 24.2389 20.3712V8.23894C24.2389 7.55442 23.6845 7 23 7Z" fill="#E8E8E9"/>
</svg>
