<svg width="264" height="324" viewBox="0 0 264 324" fill="none" xmlns="http://www.w3.org/2000/svg">
<rect width="264" height="324" fill="url(#paint0_linear_1105_2055)"/>
<path d="M47.9261 151V170.184H58.4419V172.553H45.3208V151H47.9261Z" fill="#4C4948"/>
<path d="M119.121 163.032C120.447 164.926 121.773 166.868 123.052 168.905H123.147C123.005 166.821 122.91 164.689 122.91 162.511V151H125.563V172.553H122.958L114.479 160.521C113.01 158.437 111.731 156.495 110.547 154.647H110.452C110.595 156.589 110.642 158.911 110.642 161.516V172.505H108.037V151H110.642L119.121 163.032Z" fill="#4C4948"/>
<path d="M134.989 172.553V151H137.595V172.553H134.989Z" fill="#4C4948"/>
<path d="M153.037 172.553H150.431V153.368H143.231V151H160.237V153.368H153.037V172.553Z" fill="#4C4948"/>
<path d="M190.316 172.553V151H192.921V172.553H190.316Z" fill="#4C4948"/>
<path d="M219.731 161.658C219.731 162.937 219.589 164.121 219.258 165.211C218.926 166.3 218.452 167.295 217.837 168.195C217.221 169.095 216.416 169.853 215.468 170.468C214.521 171.132 213.431 171.605 212.152 171.984C211.442 172.174 210.637 172.316 209.831 172.411C208.979 172.505 208.079 172.553 207.084 172.553H202.205V151H207.131C208.126 151 209.026 151.047 209.879 151.095C210.731 151.189 211.489 151.332 212.2 151.521C213.431 151.853 214.568 152.374 215.468 152.989C216.416 153.605 217.173 154.363 217.789 155.216C218.405 156.068 218.879 157.063 219.163 158.153C219.589 159.289 219.731 160.426 219.731 161.658ZM217.126 161.658C217.126 159.574 216.652 157.916 215.752 156.637C214.852 155.358 213.526 154.458 211.821 153.889C211.158 153.7 210.447 153.558 209.642 153.463C208.837 153.368 207.937 153.368 206.942 153.368H204.952V170.184H206.942C207.937 170.184 208.884 170.137 209.642 170.089C210.447 169.995 211.158 169.9 211.821 169.663C213.526 169.142 214.852 168.195 215.752 166.821C216.7 165.495 217.126 163.789 217.126 161.658Z" fill="#4C4948"/>
<path d="M228.637 170.184H239.674V172.553H225.984V151H239.674V153.368H228.637V160.332H237.921V162.7H228.637V170.184Z" fill="#4C4948"/>
<path d="M176.342 163.316V163.268C177.195 163.126 178 162.889 178.663 162.558C179.374 162.226 179.989 161.8 180.463 161.326C180.984 160.805 181.363 160.237 181.647 159.526C181.931 158.816 182.074 158.058 182.074 157.205C182.074 155.737 181.695 154.505 180.889 153.511C180.084 152.516 178.947 151.853 177.431 151.426C176.863 151.284 176.295 151.189 175.631 151.095C175.016 151.047 174.21 151 173.263 151H166.016V172.553H168.621V153.368H173.263C174.116 153.368 174.779 153.368 175.3 153.463C175.821 153.511 176.295 153.605 176.674 153.7C177.479 153.937 178.142 154.363 178.568 154.932C179.042 155.5 179.279 156.258 179.279 157.158C179.279 158.153 179.042 158.958 178.521 159.574C178.047 160.189 177.337 160.616 176.389 160.9C175.963 161.042 175.442 161.137 174.874 161.184C174.447 161.232 173.974 161.232 173.405 161.232V163.647L179.989 172.505H182.595L176.342 163.316Z" fill="#4C4948"/>
<path d="M97.805 151L90.1313 163.884V172.553H92.7366V163.884L100.695 151H97.805Z" fill="#4C4948"/>
<path d="M74.1208 151H71.8471L63.084 172.553H65.8787C65.8787 172.553 71.9892 157.016 72.9366 154.363H72.984C73.884 156.968 79.9945 172.553 79.9945 172.553H82.8366L74.1208 151Z" fill="#4C4948"/>
<path d="M38.4526 153.748C37.7895 152.848 36.7947 152.137 35.5158 151.664C34.9 151.427 34.1895 151.285 33.4316 151.143C32.6737 151.048 31.8684 151 30.9684 151H25V153.369H27.6053H30.6842C31.4895 153.369 32.1526 153.416 32.7684 153.464C33.3842 153.511 33.9053 153.653 34.3789 153.843C35.1368 154.127 35.7053 154.553 36.0842 155.074C36.4632 155.595 36.7 156.306 36.7 157.158C36.7 157.822 36.5579 158.437 36.3211 158.958C36.0842 159.479 35.6579 159.953 35.1368 160.332C34.5684 160.711 33.9053 160.995 33.0053 161.185C32.2474 161.327 31.3947 161.422 30.4 161.469C30.4 161.469 29.7368 161.469 29.6421 161.469H25V172.6H27.6053V163.79H29.9737C31.4421 163.79 32.7211 163.648 33.9053 163.364C35.0895 163.079 36.0842 162.653 36.9368 162.085C37.7421 161.516 38.4053 160.806 38.8316 160C39.2579 159.148 39.4947 158.2 39.4947 157.111C39.4474 155.785 39.1158 154.648 38.4526 153.748Z" fill="#4C4948"/>
<path d="M88.5686 161.705L89.9896 159.479L84.8738 151H82.1265L88.5686 161.705Z" fill="#6EA6E4"/>
<defs>
<linearGradient id="paint0_linear_1105_2055" x1="162" y1="324" x2="162" y2="2.62347e-06" gradientUnits="userSpaceOnUse">
<stop stop-color="#50D09A"/>
<stop offset="0.208333" stop-color="#9AE7DD"/>
<stop offset="0.489583" stop-color="#F8FBFF"/>
<stop offset="0.78125" stop-color="#A7BFE6"/>
<stop offset="1" stop-color="#807EF3"/>
</linearGradient>
</defs>
</svg>
